<svg width="712" height="200" viewBox="0 0 712 200" fill="none" xmlns="http://www.w3.org/2000/svg">
<path fill-rule="evenodd" clip-rule="evenodd" d="M202.871 164.911L219.869 10.0469H248.26L241.069 74.4962C245.365 68.703 250.05 64.1684 255.124 60.8925C260.198 57.6165 265.569 55.9786 271.234 55.9786C275.22 55.9786 278.862 56.7544 282.162 58.3063C285.461 59.8581 288.31 62.2891 290.707 65.5995C293.104 68.9099 294.972 73.1341 296.31 78.272C297.649 83.4102 298.318 89.5309 298.318 96.6344C298.318 106.014 297.027 114.928 294.442 123.376C291.858 131.825 288.387 139.255 284.029 145.67C279.671 152.083 274.644 157.17 268.947 160.929C263.25 164.687 257.288 166.567 251.062 166.567C246.268 166.567 242.05 165.549 238.408 163.514C234.765 161.48 231.668 158.808 229.115 155.498L228.835 156.532C227.328 161.537 223.109 164.911 218.356 164.911H202.871ZM259.654 80.2893C257.6 80.2893 255.467 81.1514 253.256 82.8756C251.047 84.5997 248.914 86.9618 246.859 89.9619C244.805 92.962 242.891 96.4793 241.116 100.514C239.341 104.548 237.863 108.841 236.679 113.393L233.877 138.428C235.684 140.083 237.708 141.256 239.948 141.945C242.19 142.635 244.338 142.98 246.392 142.98C249.755 142.98 252.852 141.738 255.685 139.255C258.517 136.773 260.962 133.514 263.017 129.48C265.07 125.445 266.674 120.842 267.826 115.669C268.977 110.497 269.553 105.221 269.553 99.8414C269.553 93.0136 268.651 88.0481 266.845 84.9446C265.039 81.8411 262.643 80.2893 259.654 80.2893ZM385.36 164.911H374.486C366.699 164.911 360.386 157.902 360.386 149.256C360.386 148.541 360.43 147.826 360.517 147.118C356.533 153.187 352.112 157.946 347.256 161.395C342.399 164.843 337.045 166.567 331.192 166.567C327.705 166.567 324.343 165.791 321.106 164.239C317.868 162.687 315.005 160.342 312.514 157.204C310.023 154.066 308.031 150.066 306.537 145.204C305.042 140.342 304.295 134.601 304.295 127.98C304.295 118.255 305.898 109.031 309.104 100.307C312.312 91.5826 316.795 83.9446 322.553 77.3928C328.313 70.8409 335.145 65.634 343.053 61.7719C350.96 57.9096 359.645 55.9786 369.109 55.9786C373.716 55.9786 378.386 56.3235 383.118 57.0131C387.85 57.7028 392.519 58.9443 397.127 60.7374L385.36 164.911ZM342.773 141.222C344.89 141.222 346.945 140.342 348.937 138.584C350.929 136.824 352.812 134.428 354.587 131.394C356.361 128.359 357.995 124.807 359.489 120.738C360.984 116.669 362.261 112.324 363.319 107.704L366.681 78.0135H365C360.268 78.0135 355.957 79.1859 352.065 81.5308C348.174 83.8757 344.828 87.0653 342.026 91.0999C339.224 95.1345 337.06 99.8242 335.535 105.169C334.009 110.514 333.247 116.221 333.247 122.29C333.247 125.738 333.496 128.669 333.994 131.083C334.491 133.497 335.162 135.445 336.002 136.929C336.843 138.412 337.838 139.498 338.991 140.187C340.142 140.877 341.403 141.222 342.773 141.222ZM403.664 164.911L415.432 57.6339H421.756C431.821 57.6339 439.981 66.6935 439.981 77.8691C439.981 78.5045 439.954 79.1395 439.9 79.7721C443.636 72.4616 447.683 66.8409 452.041 62.9097C456.4 58.9787 460.913 57.0131 465.583 57.0131C468.198 57.0131 470.781 57.6683 473.335 58.9787L468.105 88.6688C464.929 87.1516 461.91 86.3929 459.045 86.3929C454.251 86.3929 450.003 88.7895 446.298 93.5826C442.594 98.3759 439.59 106.083 437.285 116.704L432.055 164.911H403.664ZM483.047 141.738V139.98C483.047 139.291 483.094 138.307 483.187 137.031C483.281 135.756 483.437 134.066 483.654 131.963C483.872 129.859 484.168 127.083 484.541 123.635L489.491 79.7721H481.739C480.557 79.7721 479.561 79.3411 478.752 78.479C477.942 77.6169 477.538 76.3239 477.538 74.5997C477.538 74.5306 477.599 73.9272 477.723 72.7892C477.849 71.6513 477.973 70.4443 478.098 69.1685C478.222 67.8926 478.346 66.7029 478.472 65.5995C478.596 64.496 478.657 63.8753 478.657 63.7374L479.345 57.8407L493.601 57.6339L496.148 38.7551C497.1 31.7088 502.551 26.4954 508.969 26.4954H523.766L520.217 57.8407H541.884L541.695 59.5536C540.416 71.0982 531.584 79.7721 521.108 79.7721H517.789L513.119 121.876C512.808 124.704 512.575 126.928 512.419 128.549C512.263 130.169 512.139 131.411 512.046 132.273C511.982 132.859 511.919 133.445 511.859 134.032C511.828 134.342 511.813 134.532 511.813 134.601C511.813 136.601 512.232 138.273 513.073 139.618C513.913 140.963 515.236 141.635 517.042 141.635C518.038 141.635 518.863 141.515 519.517 141.273C519.952 141.113 521.494 140.44 524.14 139.255L533.666 157.256C529.806 160.36 525.665 162.687 521.244 164.239C516.824 165.791 512.372 166.567 507.89 166.567C504.154 166.567 500.792 165.997 497.803 164.859C494.815 163.722 492.247 162.066 490.099 159.894C487.951 157.722 486.27 155.118 485.055 152.083C483.841 149.049 483.172 145.601 483.047 141.738ZM627.431 84.0135C627.431 88.9102 626.559 93.393 624.816 97.4621C623.073 101.531 620.038 105.135 615.711 108.273C611.383 111.411 605.562 114.083 598.246 116.29C590.93 118.497 581.732 120.221 570.648 121.462C570.773 128.773 572.221 134.118 574.992 137.497C577.763 140.877 581.856 142.566 587.273 142.566C589.825 142.566 592.036 142.325 593.904 141.842C595.772 141.359 597.405 140.739 598.806 139.98C607.202 135.434 617.24 136.977 624.206 143.888L625.377 145.05C621.952 148.773 618.605 151.998 615.336 154.721C612.068 157.445 608.706 159.687 605.251 161.446C601.795 163.204 598.122 164.498 594.23 165.325C590.339 166.153 586.089 166.567 581.482 166.567C575.754 166.567 570.493 165.481 565.699 163.308C560.904 161.136 556.781 158.067 553.325 154.101C549.869 150.135 547.192 145.36 545.293 139.773C543.393 134.187 542.444 127.98 542.444 121.152C542.444 115.428 543.021 109.842 544.172 104.393C545.324 98.9448 546.974 93.8241 549.122 89.0308C551.27 84.2377 553.901 79.8239 557.014 75.7893C560.126 71.7547 563.629 68.2892 567.52 65.3926C571.412 62.4959 575.676 60.2373 580.315 58.6166C584.953 56.9959 589.888 56.1856 595.118 56.1856C600.285 56.1856 604.877 57.0131 608.893 58.6684C612.909 60.3236 616.287 62.4787 619.026 65.1339C621.765 67.7891 623.852 70.772 625.283 74.0824C626.715 77.3928 627.431 80.7032 627.431 84.0135ZM593.437 77.8065C588.643 77.8065 584.44 79.9273 580.828 84.1688C577.218 88.4102 574.509 94.2206 572.703 101.6C578.743 100.566 583.63 99.4793 587.366 98.3414C591.102 97.2034 593.997 95.9621 596.052 94.6171C598.105 93.2723 599.491 91.8241 600.207 90.2723C600.924 88.7205 601.282 87.0481 601.282 85.255C601.282 83.4618 600.659 81.7721 599.414 80.186C598.168 78.5997 596.176 77.8065 593.437 77.8065ZM632.288 164.911L644.055 57.6339H648.583C659.596 57.6339 668.523 67.5455 668.523 79.7721C672.259 72.4616 676.306 66.8409 680.664 62.9097C685.022 58.9787 689.537 57.0131 694.207 57.0131C696.821 57.0131 699.405 57.6683 701.957 58.9787L696.727 88.6688C693.553 87.1516 690.533 86.3929 687.669 86.3929C682.874 86.3929 678.625 88.7895 674.921 93.5826C671.216 98.3759 668.212 106.083 665.908 116.704L660.679 164.911H632.288Z" fill="black"/>
<path d="M129.376 86.5936C152.022 67.5441 198.607 -0.540036 125.818 11.4541C94.1137 16.3928 54.8117 45.2558 45.43 81.2383C40.5354 71.6164 35.1345 62.3113 29.2544 53.3695C20.5196 41.0226 3.20719 53.0807 12.9124 65.7803C40.4109 102.115 59.498 145.858 59.498 189.955C61.7626 168.083 65.4876 138.739 57.0764 112.634C60.1543 114.945 60.3772 115.118 62.5197 117.935C77.4012 142.63 100.26 163.144 125.818 173.022C149.111 182.547 180.167 176.902 167.551 138.803C160.757 117.99 144.904 99.6461 129.376 86.5936Z" fill="#F5A623"/>
</svg>
