<svg width="776" height="200" viewBox="0 0 776 200" fill="none" xmlns="http://www.w3.org/2000/svg">
<path d="M30.5569 59.1718C41.2201 66.5077 50.748 71.9765 64.5664 76.5234L75.9576 9.83594L37.0002 10.1563L30.5569 59.1718ZM23.3854 100.391L8.81555 191.14H46.5752L57.4341 122.734C44.0229 116.445 35.8493 114.156 23.3854 100.391Z" fill="#68AC48"/>
<path d="M145.08 11.2344L133.76 83.0702L172.24 77.8827L180.249 24.8984L180.256 24.8515L180.64 22.3125H180.664L182.464 11.2344H145.08Z" fill="url(#paint0_linear_68_2013)"/>
<path d="M218.4 11.2344H193.127L191.139 22.4062L216.544 22.6562C218.893 22.5 240.814 25.5937 238.395 50.5703C237.98 54.8671 232.876 73.1171 230.48 75.8515C242.772 78.1483 251.564 79.7577 259.659 84.5937C269.359 77.4609 276.977 65.6718 278.817 53.1562C284.657 14.4297 251.219 11.2344 218.4 11.2344Z" fill="url(#paint1_linear_68_2013)"/>
<path d="M232.985 120.312C235.185 132.594 236.469 140.945 230.316 156.117C224.397 170.687 205.474 180.664 196.33 180.125L165.436 180.047L163.792 189.164H198.827C245.598 192.187 262.736 175.258 274.385 146.875C269.821 138.039 266.361 125.375 232.985 120.312Z" fill="url(#paint2_linear_68_2013)"/>
<path d="M126.189 129.82L117.17 189.156H154.796L156.675 177.156L156.848 176.047L164.512 125.195L126.189 129.82Z" fill="url(#paint3_linear_68_2013)"/>
<path d="M6.26331 55C6.26331 55 52.9167 91.8359 104.338 91.8359C155.759 91.8359 162.978 81.7265 209.482 81.7265C257.193 81.7265 281.181 95.6874 276.914 136.414C276.914 136.414 269.085 110.883 219.48 110.883C169.875 110.883 160.175 123.219 111.541 123.219C62.9066 123.219 21.7179 104.734 6.26331 55Z" fill="url(#paint4_linear_68_2013)"/>
<path fill-rule="evenodd" clip-rule="evenodd" d="M543.016 31.25H530.208L523.06 82.3515H535.868L543.016 31.25ZM547.275 13.9141C547.917 9.55468 544.715 6.25 540.018 6.25C537.833 6.26245 535.72 7.03452 534.044 8.43334C532.368 9.83216 531.233 11.7702 530.834 13.9141C530.302 17.9609 533.183 21.5781 537.88 21.5781C542.578 21.5781 546.633 18.2734 547.275 13.9141ZM366.338 7.03125H352.895L342.232 82.3671H355.667L360.364 49.1484H395.681L390.984 82.3671H404.442L415.089 7.03125H401.647L397.396 37.0469H362.071L366.338 7.03125ZM445.396 73.4219C438.248 73.4219 433.128 68.8438 433.339 61.2891L472.383 61.3047L472.805 57.7891C475.365 40.0157 467.051 30.0079 452.755 30.0079C437.285 30.0079 423.412 40.7501 421.173 56.8282C418.933 72.9063 429.706 83.6563 445.177 83.6563C453.287 83.6563 461.281 80.7813 468.327 73.4375L460.114 66.5079C456.356 70.4454 451.792 73.4219 445.396 73.4219ZM449.663 39.5704C457.664 39.5704 461.821 44.2579 460.858 51.7032H434.615C436.643 44.3594 442.084 39.5704 449.663 39.5704ZM488.495 31.2495H501.295L500.23 39.3432H500.442C502.139 36.4978 504.545 34.139 507.426 32.4962C510.307 30.8534 513.565 29.9825 516.883 29.9682C518.404 29.9912 519.914 30.2414 521.361 30.7104L519.654 43.062C517.679 42.4832 515.637 42.1603 513.579 42.1011C501.522 42.1011 498.43 52.2182 497.999 54.9838L494.163 82.3276H481.347L488.495 31.2495ZM550.258 42.125L551.754 31.2657H562.315L564.452 16.4688H577.253L575.115 31.25H589.208L587.712 42.1094H573.62L570.489 64.4687C569.745 69.5781 570.809 72.7656 576.462 72.7656C578.709 72.7656 581.801 72.3438 583.61 71.2031L582.162 81.9375C579.281 83.2187 574.693 83.6406 571.702 83.6406C558.158 83.6406 555.809 77.5781 557.516 65.5469L560.82 42.1094L550.258 42.125ZM624.728 75.3363H625.042L624.086 82.3676H635.587L639.752 52.9848L639.774 52.8187C640.74 45.5048 642.789 29.9926 621.08 29.9926C612.977 29.9926 604.655 32.438 598.149 38.1879L603.903 44.891C608.005 41.54 613.118 39.6658 618.418 39.5707C625.245 39.5707 629.614 42.8989 628.76 49.1489L628.549 50.5395H625.347C612.546 50.5395 592.919 51.7036 590.68 68.3129C589.2 78.4301 597.632 83.641 607.121 83.641C613.948 83.641 620.352 81.0863 624.728 75.3363ZM623.867 59.477H626.537L626.114 62.3442C625.151 69.4848 620.352 74.0629 611.599 74.0629C607.442 74.0629 602.964 72.0395 603.605 67.352C604.67 60.0082 616.821 59.477 623.867 59.477ZM709.22 31.2506L702.729 77.7896C700.169 96.2037 689.506 107.915 669.557 107.915C660.061 107.915 651.739 105.891 645.342 99.5084L654.487 89.0631C658.973 93.7506 663.881 96.4068 671.022 96.4068C683.399 96.4068 688.308 89.3756 689.694 79.274L690.226 75.5475H690.015C685.537 80.5475 678.6 83.0006 672.196 83.0006C656.835 83.0006 648.411 71.2818 650.439 56.8053C652.568 41.6959 663.662 29.985 679.453 29.985C686.601 29.985 692.896 32.7506 695.777 38.9225H695.988L697.053 31.2585L709.22 31.2506ZM663.239 56.6959C662.065 64.7819 667.506 71.4928 676.142 71.4928C685.638 71.4928 692.364 65.0006 693.538 56.485C694.814 47.649 689.803 41.4694 680.518 41.4694C671.562 41.485 664.516 47.6569 663.239 56.7115V56.6959ZM741.875 73.4375C734.711 73.4375 729.591 68.8438 729.81 61.2891L768.854 61.3047L769.276 57.7891C771.836 40.0157 763.522 30.0079 749.226 30.0079C733.756 30.0079 719.883 40.7501 717.644 56.8282C715.405 72.9063 726.177 83.6563 741.648 83.6563C749.759 83.6563 757.752 80.7813 764.798 73.4375L756.601 66.5235C752.835 70.461 748.279 73.4375 741.875 73.4375ZM746.126 39.5704C754.127 39.5704 758.292 44.2579 757.329 51.7032H731.086C733.114 44.3594 738.555 39.5704 746.126 39.5704Z" fill="#68AC48"/>
<path fill-rule="evenodd" clip-rule="evenodd" d="M552.818 111.992H540.018L528.713 192.484H541.529L545.154 166.406H545.365L562.104 192.469H579.054L559.637 164.578L584.816 141.375H568.375L545.67 162.562L552.818 111.992ZM382.34 117.102H352.895L342.232 192.469H369.407C383.703 192.469 398.75 187.376 400.989 170.969C402.375 161.282 396.621 153.829 387.226 152.766L387.335 152.555C395.438 150.212 401.522 144.571 402.696 136.055C404.747 122.321 393.755 117.102 382.34 117.102ZM369.649 180.977H357.272L360.364 159.259H373.274C384.157 159.259 388.846 162.024 387.782 169.907C386.396 179.805 376.578 180.977 369.649 180.977ZM374.237 147.759H361.969L364.631 128.602H375.756C385.871 128.602 389.919 131.798 389.066 138.29C388.22 143.93 383.202 147.759 374.237 147.759ZM442.804 185.446H443.149L442.193 192.469H453.671L457.836 163.094L457.858 162.929C458.824 155.616 460.873 140.094 439.164 140.094C431.061 140.094 422.738 142.547 416.224 148.297L421.987 155.001C426.084 151.647 431.196 149.773 436.494 149.68C443.329 149.68 447.697 153.008 446.844 159.258L446.633 160.641H443.431C430.63 160.641 411.003 161.813 408.763 178.422C407.284 188.532 415.708 193.75 425.204 193.75C432.031 193.75 438.436 191.196 442.804 185.446ZM441.974 169.586H444.644L444.221 172.454C443.258 179.594 438.459 184.172 429.706 184.172C425.549 184.172 421.071 182.149 421.713 177.461C422.777 170.118 434.928 169.586 441.974 169.586ZM474.622 141.406H486.788L485.715 149.601H485.935C488.917 144.492 494.359 140.125 502.892 140.125C516.656 140.125 520.179 149.812 518.785 160.25L514.197 192.5H501.397L505.03 166.633C505.883 160.992 506.736 151.625 497.772 151.625C489.348 151.625 485.183 157.797 484.228 164.609L480.313 192.5H467.474L474.622 141.406Z" fill="#68AC48"/>
<defs>
<linearGradient id="paint0_linear_68_2013" x1="150.639" y1="37.3281" x2="187.805" y2="86.4273" gradientUnits="userSpaceOnUse">
<stop offset="0.76" stop-color="#68AC48"/>
<stop offset="0.78" stop-color="#6EAF4F"/>
<stop offset="0.81" stop-color="#7FB863"/>
<stop offset="0.84" stop-color="#9CC784"/>
<stop offset="0.88" stop-color="#C3DBB1"/>
<stop offset="0.89" stop-color="#CFE1BF"/>
<stop offset="0.91" stop-color="#A4C6A2"/>
<stop offset="0.93" stop-color="#4E9066"/>
<stop offset="0.95" stop-color="#176D41"/>
<stop offset="0.96" stop-color="#026032"/>
</linearGradient>
<linearGradient id="paint1_linear_68_2013" x1="26779.9" y1="29616.1" x2="31419.7" y2="36982" gradientUnits="userSpaceOnUse">
<stop offset="0.76" stop-color="#68AC48"/>
<stop offset="0.78" stop-color="#6EAF4F"/>
<stop offset="0.81" stop-color="#7FB863"/>
<stop offset="0.84" stop-color="#9CC784"/>
<stop offset="0.88" stop-color="#C3DBB1"/>
<stop offset="0.89" stop-color="#CFE1BF"/>
<stop offset="0.91" stop-color="#A4C6A2"/>
<stop offset="0.93" stop-color="#4E9066"/>
<stop offset="0.95" stop-color="#176D41"/>
<stop offset="0.96" stop-color="#026032"/>
</linearGradient>
<linearGradient id="paint2_linear_68_2013" x1="204.417" y1="209.797" x2="234.007" y2="120.837" gradientUnits="userSpaceOnUse">
<stop offset="0.22" stop-color="#68AC48"/>
<stop offset="0.33" stop-color="#63A847"/>
<stop offset="0.46" stop-color="#559E44"/>
<stop offset="0.59" stop-color="#3E8C3F"/>
<stop offset="0.73" stop-color="#1D7438"/>
<stop offset="0.83" stop-color="#026032"/>
</linearGradient>
<linearGradient id="paint3_linear_68_2013" x1="8541.74" y1="36250.9" x2="11477.2" y2="39115.2" gradientUnits="userSpaceOnUse">
<stop offset="0.76" stop-color="#68AC48"/>
<stop offset="0.78" stop-color="#6EAF4F"/>
<stop offset="0.81" stop-color="#7FB863"/>
<stop offset="0.84" stop-color="#9CC784"/>
<stop offset="0.88" stop-color="#C3DBB1"/>
<stop offset="0.89" stop-color="#CFE1BF"/>
<stop offset="0.91" stop-color="#A4C6A2"/>
<stop offset="0.93" stop-color="#4E9066"/>
<stop offset="0.95" stop-color="#176D41"/>
<stop offset="0.96" stop-color="#026032"/>
</linearGradient>
<linearGradient id="paint4_linear_68_2013" x1="3371.06" y1="40312.6" x2="97270.9" y2="40312.6" gradientUnits="userSpaceOnUse">
<stop offset="0.76" stop-color="#68AC48"/>
<stop offset="0.78" stop-color="#6EAF4F"/>
<stop offset="0.81" stop-color="#7FB863"/>
<stop offset="0.84" stop-color="#9CC784"/>
<stop offset="0.88" stop-color="#C3DBB1"/>
<stop offset="0.89" stop-color="#CFE1BF"/>
<stop offset="0.91" stop-color="#A4C6A2"/>
<stop offset="0.93" stop-color="#4E9066"/>
<stop offset="0.95" stop-color="#176D41"/>
<stop offset="0.96" stop-color="#026032"/>
</linearGradient>
</defs>
</svg>
