<svg width="439" height="400" viewBox="0 0 439 400" fill="none" xmlns="http://www.w3.org/2000/svg">
<rect width="438.437" height="400" fill="#68AC48"/>
<path fill-rule="evenodd" clip-rule="evenodd" d="M96.5289 103.145C85.6227 99.5567 78.1026 95.2405 69.6866 89.4505L74.7721 50.7645L105.52 50.5117L96.5289 103.145ZM52.5271 193.608L64.0265 121.983C72.4227 131.256 78.3521 133.93 86.4906 137.601C87.8873 138.231 89.3491 138.891 90.8997 139.618L82.3292 193.608H52.5271ZM151.14 108.313L160.075 51.6154H189.581L181.511 104.218L151.14 108.313ZM217.943 51.6154H197.997L196.428 60.4329L216.479 60.6303C218.333 60.5069 235.634 62.9487 233.725 82.6617C233.397 86.053 229.369 100.457 227.478 102.615L227.766 102.669C237.317 104.453 244.182 105.736 250.508 109.515C258.163 103.885 264.176 94.5807 265.628 84.7026C270.238 54.1374 243.846 51.6154 217.943 51.6154ZM227.348 165.965C232.205 153.991 231.191 147.399 229.455 137.706C253.655 141.377 257.928 150.112 261.256 156.915C261.55 157.517 261.837 158.104 262.13 158.671C252.936 181.072 239.41 194.434 202.495 192.048H174.844L176.141 184.852L200.524 184.914C207.741 185.339 222.676 177.465 227.348 165.965ZM145.165 145.21L138.047 192.042H167.744L169.227 182.571L169.363 181.695L175.412 141.56L145.165 145.21ZM127.919 115.231C87.3343 115.231 50.5127 86.1579 50.5127 86.1579C62.7104 125.411 95.2189 140 133.604 140C152.702 140 164.193 137.59 175.741 135.168C187.403 132.722 199.124 130.264 218.796 130.264C257.947 130.264 264.126 150.415 264.126 150.415C267.494 118.271 248.561 107.252 210.905 107.252C193.014 107.252 182.49 109.148 171.702 111.091C160.358 113.135 148.721 115.231 127.919 115.231Z" fill="white"/>
<path fill-rule="evenodd" clip-rule="evenodd" d="M208.983 221.233H198.874L193.233 261.566H203.342L208.983 221.233ZM212.345 207.551C212.852 204.11 210.324 201.502 206.617 201.502C204.892 201.512 203.225 202.121 201.902 203.225C200.579 204.329 199.683 205.859 199.369 207.551C198.949 210.745 201.222 213.6 204.93 213.6C208.637 213.6 211.838 210.992 212.345 207.551ZM69.5383 202.119H58.9287L50.5127 261.578H61.1161L64.8236 235.36H92.6978L88.9903 261.578H99.6123L108.016 202.119H97.4063L94.051 225.809H66.1707L69.5383 202.119ZM131.936 254.518C126.294 254.518 122.253 250.905 122.42 244.942L153.235 244.954L153.569 242.18C155.589 228.152 149.027 220.253 137.744 220.253C125.534 220.253 114.584 228.731 112.817 241.421C111.05 254.111 119.553 262.596 131.763 262.596C138.164 262.596 144.473 260.326 150.034 254.53L143.552 249.061C140.586 252.169 136.984 254.518 131.936 254.518ZM135.303 227.8C141.618 227.8 144.899 231.5 144.139 237.376H123.427C125.027 231.58 129.322 227.8 135.303 227.8ZM165.952 221.233H176.055L175.214 227.621H175.381C176.72 225.375 178.619 223.514 180.893 222.217C183.167 220.92 185.739 220.233 188.357 220.222C189.558 220.24 190.75 220.437 191.892 220.808L190.545 230.556C188.986 230.099 187.374 229.844 185.75 229.798C176.234 229.798 173.793 237.783 173.453 239.966L170.425 261.547H160.31L165.952 221.233ZM214.699 229.817L215.879 221.246H224.215L225.902 209.567H236.005L234.318 221.233H245.441L244.26 229.804H233.138L230.666 247.452C230.079 251.484 230.919 254 235.381 254C237.154 254 239.595 253.667 241.022 252.767L239.879 261.239C237.605 262.25 233.984 262.583 231.624 262.583C220.934 262.583 219.08 257.798 220.427 248.303L223.035 229.804L214.699 229.817ZM273.475 256.029H273.723L272.969 261.578H282.046L285.333 238.388L285.351 238.257C286.113 232.484 287.73 220.241 270.596 220.241C264.2 220.241 257.632 222.171 252.497 226.709L257.039 232C260.276 229.355 264.312 227.876 268.495 227.801C273.883 227.801 277.331 230.427 276.658 235.36L276.491 236.458H273.964C263.861 236.458 248.369 237.377 246.602 250.486C245.434 258.471 252.089 262.583 259.578 262.583C264.967 262.583 270.021 260.567 273.475 256.029ZM272.796 243.512H274.903L274.569 245.775C273.809 251.411 270.021 255.024 263.113 255.024C259.832 255.024 256.297 253.427 256.804 249.727C257.644 243.931 267.234 243.512 272.796 243.512ZM340.161 221.234L335.038 257.965C333.018 272.499 324.602 281.742 308.857 281.742C301.362 281.742 294.793 280.145 289.745 275.107L296.962 266.863C300.503 270.563 304.377 272.659 310.013 272.659C319.782 272.659 323.656 267.11 324.75 259.137L325.17 256.196H325.003C321.469 260.142 315.994 262.078 310.94 262.078C298.816 262.078 292.167 252.829 293.768 241.403C295.448 229.478 304.204 220.235 316.668 220.235C322.309 220.235 327.277 222.418 329.551 227.289H329.718L330.558 221.24L340.161 221.234ZM303.871 241.317C302.944 247.699 307.238 252.995 314.054 252.995C321.549 252.995 326.857 247.871 327.784 241.15C328.791 234.177 324.837 229.299 317.508 229.299C310.439 229.311 304.878 234.183 303.871 241.329V241.317ZM365.934 254.53C360.28 254.53 356.239 250.905 356.412 244.942L387.228 244.954L387.561 242.18C389.582 228.152 383.02 220.253 371.736 220.253C359.526 220.253 348.577 228.731 346.81 241.421C345.042 254.111 353.545 262.596 365.755 262.596C372.157 262.596 378.466 260.326 384.027 254.53L377.557 249.073C374.585 252.181 370.989 254.53 365.934 254.53ZM369.289 227.8C375.605 227.8 378.892 231.5 378.132 237.376H357.419C359.02 231.58 363.314 227.8 369.289 227.8Z" fill="white"/>
<path fill-rule="evenodd" clip-rule="evenodd" d="M216.72 284.959H206.617L197.694 348.488H207.809L210.67 327.906H210.837L224.048 348.476H237.426L222.102 326.463L241.974 308.15H228.998L211.078 324.872L216.72 284.959ZM82.1685 288.992H58.9287L50.5127 348.476H71.9606C83.2437 348.476 95.1201 344.456 96.8873 331.507C97.981 323.861 93.4393 317.979 86.0243 317.14L86.1108 316.974C92.5063 315.124 97.3075 310.672 98.2344 303.951C99.8533 293.111 91.1777 288.992 82.1685 288.992ZM72.1521 339.406H62.3829L64.8236 322.264H75.0131C83.6021 322.264 87.3034 324.447 86.463 330.669C85.3693 338.481 77.6207 339.406 72.1521 339.406ZM75.7731 313.188H66.0904L68.1913 298.069H76.9718C84.9553 298.069 88.1499 300.591 87.4764 305.715C86.8091 310.167 82.8482 313.188 75.7731 313.188ZM129.89 342.933H130.162L129.408 348.476H138.467L141.754 325.292L141.771 325.161C142.534 319.389 144.151 307.139 127.017 307.139C120.621 307.139 114.053 309.075 108.912 313.613L113.46 318.904C116.694 316.257 120.728 314.778 124.91 314.705C130.304 314.705 133.752 317.331 133.079 322.264L132.912 323.356H130.384C120.282 323.356 104.79 324.28 103.023 337.39C101.855 345.368 108.504 349.487 115.999 349.487C121.388 349.487 126.442 347.471 129.89 342.933ZM129.235 330.416H131.342L131.009 332.679C130.249 338.314 126.461 341.928 119.552 341.928C116.271 341.928 112.737 340.331 113.243 336.631C114.084 330.835 123.674 330.416 129.235 330.416ZM155.002 308.174H164.605L163.758 314.642H163.931C166.285 310.61 170.58 307.163 177.315 307.163C188.178 307.163 190.959 314.809 189.859 323.047L186.238 348.5H176.135L179.002 328.084C179.676 323.632 180.349 316.239 173.274 316.239C166.625 316.239 163.338 321.111 162.584 326.487L159.495 348.5H149.361L155.002 308.174Z" fill="white"/>
</svg>
