<svg width="816" height="400" viewBox="0 0 816 400" fill="none" xmlns="http://www.w3.org/2000/svg">
<path d="M408 15.416H355.593L355.493 15.5982L348.26 28.7711H408C452.252 28.7711 488.148 64.65 488.148 108.909C488.148 153.169 452.263 189.047 408 189.047C363.737 189.047 327.848 153.165 327.848 108.909C327.844 100.537 329.156 92.2166 331.734 84.2514H347.036C336.189 111.053 344.124 141.794 366.59 159.999C389.056 178.204 420.779 179.6 444.758 163.439C468.736 147.278 479.343 117.353 470.892 89.7022C462.442 62.0515 436.918 43.1643 408 43.1636H340.361L333.032 56.515H408C431.55 56.5198 452.204 72.2334 458.486 94.9261C464.769 117.619 455.137 141.714 434.941 153.826C414.746 165.938 388.949 163.09 371.883 146.865C354.817 130.639 350.675 105.023 361.758 84.2476H379.095C367.523 97.8295 366.963 117.632 377.749 131.846C388.535 146.06 407.761 150.854 423.959 143.37C440.158 135.885 448.965 118.139 445.129 100.715C441.292 83.2903 425.845 70.8831 408 70.8925H325.133L317.8 84.2514C315.605 92.2869 314.492 100.579 314.491 108.909C314.491 160.541 356.355 202.402 408 202.402C459.645 202.402 501.509 160.541 501.509 108.909C501.509 57.2772 459.641 15.416 408 15.416ZM408 84.2514C421.62 84.2514 432.662 95.2911 432.662 108.909C432.662 122.527 421.62 133.567 408 133.567C394.379 133.567 383.338 122.527 383.338 108.909C383.338 95.2911 394.379 84.2514 408 84.2514Z" fill="#0066F5"/>
<path fill-rule="evenodd" clip-rule="evenodd" d="M617.74 226.779C610.012 226.779 604.914 232.04 604.914 239.276C604.914 246.507 610.012 251.768 617.74 251.768C625.285 251.768 630.383 246.511 630.383 239.276C630.383 232.04 625.3 226.779 617.74 226.779ZM627.769 349.414V265.74H607.71V349.414H627.769ZM15.4138 307.661C15.4138 281.687 32.8432 263.439 58.9816 263.439C75.0946 263.439 88.2475 270.503 95.153 282.345L80.0292 293.03C75.2582 285.464 68.0254 281.85 59.4762 281.85C45.3453 281.85 35.9668 291.889 35.9668 307.661C35.9668 323.277 45.3379 333.468 59.4762 333.468C68.0291 333.468 75.2582 329.686 80.0292 322.124L95.153 332.81C88.2475 344.811 75.0946 351.716 58.9816 351.716C32.8432 351.716 15.4138 333.468 15.4138 307.661ZM142.06 263.439C115.26 263.439 97.994 283.33 97.994 307.661C97.994 331.824 115.278 351.716 142.06 351.716C169.017 351.716 186.123 331.828 186.123 307.661C186.123 283.33 169.024 263.439 142.06 263.439ZM165.569 307.661C165.569 292.372 156.526 281.687 142.06 281.687C127.595 281.687 118.547 292.372 118.547 307.661C118.547 322.782 127.591 333.468 142.06 333.468C156.529 333.468 165.569 322.782 165.569 307.661ZM292.127 349.407L317.785 265.733H297.723L280.554 326.061L261.935 265.733H242.676L224.06 326.061L206.728 265.733H186.825L212.335 349.407H234.03L252.326 290.391L270.462 349.407H292.127ZM377.816 265.413V284.152C374.771 283.647 371.694 283.373 368.608 283.33C353.975 283.33 346.248 290.729 346.248 308.152V349.422H326.201V265.733H345.91V279.712C350.022 270.016 359.062 264.26 370.572 264.26C373.036 264.212 375.488 264.603 377.816 265.413ZM461.035 341.023V265.733H441.141V310.78C441.141 322.949 433.082 330.344 420.915 330.344C410.395 330.344 405.133 324.756 405.133 311.933V265.733H385.074V317.027C385.074 337.412 396.253 348.589 414.009 348.589C426.344 348.589 436.537 343.001 441.304 333.795V341.011C441.304 357.954 432.097 366.666 416.642 366.666C407.762 366.666 398.551 363.859 391.485 358.282L382.442 372.912C390.336 380.311 403.489 384.583 417.791 384.583C445.417 384.583 461.035 369.135 461.035 341.023ZM599.637 265.733L573.956 349.407H552.291L534.155 290.391L515.86 349.407H494.21L468.692 265.751H488.594L505.927 326.08L524.524 265.733H543.783L562.402 326.061L579.575 265.733H599.637ZM637.861 335.769L648.712 323.109C655.287 330.344 665.484 334.616 676.171 334.616C685.706 334.616 690.968 331.003 690.968 325.742C690.968 321.302 687.677 318.51 679.295 316.536L665.647 313.413C648.218 309.304 640.821 301.247 640.821 289.74C640.821 274.288 653.643 263.439 675.349 263.439C690.146 263.439 702.477 268.532 709.71 276.757L699.022 289.74C691.789 283.494 683.567 280.534 674.851 280.534C665.48 280.534 660.876 283.988 660.876 289.086C660.876 293.03 663.669 295.495 672.549 297.466L687.018 300.92C704.608 304.865 711.022 312.918 711.022 324.425C711.022 341.03 698.197 351.716 676.004 351.716C659.4 351.716 645.425 345.469 637.861 335.769ZM800.103 313.576H737.782C739.92 327.058 748.796 334.289 762.444 334.289C771.815 334.289 779.706 330.839 785.79 323.767L797.793 335.605C789.902 345.797 777.24 351.716 761.786 351.716C735.149 351.716 717.392 334.289 717.392 307.988C717.392 282.014 734.498 263.439 759.815 263.439C784.146 263.439 800.586 280.371 800.586 305.85C800.583 308.433 800.422 311.013 800.103 313.576ZM737.782 299.939C739.927 287.933 747.655 280.865 759.997 280.869C771.993 280.869 779.561 287.606 780.546 299.939H737.782Z" fill="#0066F5"/>
</svg>
