<svg width="1008" height="200" viewBox="0 0 1008 200" fill="none" xmlns="http://www.w3.org/2000/svg">
<path d="M99.4474 7.95312H48.1537L48.0554 8.13249L40.9763 21.1017H99.4474C142.759 21.1017 177.893 56.4255 177.893 100C177.893 143.575 142.77 178.899 99.4474 178.899C56.1245 178.899 20.9982 143.571 20.9982 100C20.9946 91.7577 22.2781 83.5657 24.8016 75.7237H39.7788C29.1616 102.111 36.9287 132.376 58.917 150.3C80.9054 168.223 111.955 169.597 135.424 153.687C158.893 137.776 169.274 108.313 161.004 81.0902C152.733 53.8672 127.751 35.2722 99.4474 35.2715H33.2456L26.0719 48.4163H99.4474C122.497 48.4211 142.712 63.8916 148.861 86.2333C155.01 108.575 145.583 132.298 125.817 144.222C106.05 156.147 80.8016 153.343 64.0981 137.369C47.3946 121.394 43.3406 96.1743 54.1882 75.72H71.1563C59.8305 89.0918 59.2826 108.588 69.8395 122.582C80.3963 136.576 99.2132 141.296 115.068 133.928C130.922 126.559 139.543 109.087 135.787 91.9324C132.032 74.7775 116.913 62.5622 99.4474 62.5715H18.3412L11.1638 75.7237C9.01538 83.635 7.926 91.7991 7.92451 100C7.92451 150.834 48.8998 192.047 99.4474 192.047C149.995 192.047 190.97 150.834 190.97 100C190.97 49.1667 149.991 7.95312 99.4474 7.95312ZM99.4474 75.7237C112.779 75.7237 123.586 86.5926 123.586 100C123.586 113.408 112.779 124.277 99.4474 124.277C86.1162 124.277 75.3092 113.408 75.3092 100C75.3092 86.5926 86.1162 75.7237 99.4474 75.7237Z" fill="#0066F5"/>
<path fill-rule="evenodd" clip-rule="evenodd" d="M821.113 22.3184C813.55 22.3184 808.56 27.498 808.56 34.6213C808.56 41.741 813.55 46.9206 821.113 46.9206C828.498 46.9206 833.488 41.7447 833.488 34.6213C833.488 27.498 828.513 22.3184 821.113 22.3184ZM830.93 143.056V60.6764H811.297V143.056H830.93ZM231.583 101.949C231.583 76.3765 248.642 58.4108 274.226 58.4108C289.996 58.4108 302.87 65.3657 309.629 77.0244L294.826 87.5447C290.156 80.0956 283.077 76.5376 274.71 76.5376C260.879 76.5376 251.7 86.421 251.7 101.949C251.7 117.323 260.872 127.356 274.71 127.356C283.081 127.356 290.156 123.634 294.826 116.188L309.629 126.708C302.87 138.525 289.996 145.322 274.226 145.322C248.642 145.322 231.583 127.356 231.583 101.949ZM355.539 58.4108C329.308 58.4108 312.409 77.9945 312.409 101.949C312.409 125.738 329.326 145.322 355.539 145.322C381.923 145.322 398.666 125.742 398.666 101.949C398.666 77.9945 381.93 58.4108 355.539 58.4108ZM378.549 101.949C378.549 86.8968 369.697 76.3765 355.539 76.3765C341.381 76.3765 332.526 86.8968 332.526 101.949C332.526 116.836 341.377 127.356 355.539 127.356C369.701 127.356 378.549 116.836 378.549 101.949ZM502.418 143.049L527.531 60.6693H507.895L491.091 120.065L472.867 60.6693H454.017L435.797 120.065L418.833 60.6693H399.353L424.322 143.049H445.555L463.462 84.9458L481.213 143.049H502.418ZM586.286 60.3545V78.8034C583.307 78.3069 580.294 78.0364 577.275 77.9944C562.953 77.9944 555.389 85.2788 555.389 102.432V143.064H535.768V60.6693H555.058V74.4328C559.084 64.8862 567.932 59.2197 579.196 59.2197C581.608 59.1724 584.009 59.5566 586.286 60.3545ZM667.738 134.795V60.6693H648.266V105.02C648.266 117.001 640.379 124.282 628.47 124.282C618.173 124.282 613.023 118.78 613.023 106.155V60.6693H593.391V111.17C593.391 131.24 604.332 142.244 621.711 142.244C633.784 142.244 643.76 136.742 648.426 127.678V134.784C648.426 151.464 639.414 160.041 624.288 160.041C615.597 160.041 606.581 157.277 599.666 151.787L590.814 166.191C598.541 173.475 611.415 177.681 625.413 177.681C652.452 177.681 667.738 162.472 667.738 134.795ZM803.396 60.6693L778.26 143.049H757.055L739.305 84.9458L721.398 143.049H700.208L675.232 60.6876H694.712L711.676 120.083L729.878 60.6693H748.728L766.952 120.065L783.76 60.6693H803.396ZM840.807 129.622L851.428 117.158C857.863 124.282 867.843 128.487 878.303 128.487C887.636 128.487 892.786 124.929 892.786 119.75C892.786 115.379 889.564 112.63 881.361 110.686L868.003 107.612C850.944 103.567 843.705 95.6345 843.705 84.3052C843.705 69.0921 856.254 58.4108 877.499 58.4108C891.981 58.4108 904.05 63.4257 911.13 71.5227L900.669 84.3052C893.59 78.1555 885.543 75.2418 877.011 75.2418C867.839 75.2418 863.333 78.6424 863.333 83.6609C863.333 87.5447 866.067 89.9716 874.758 91.9117L888.92 95.3123C906.136 99.1961 912.414 107.125 912.414 118.454C912.414 134.802 899.861 145.322 878.14 145.322C861.888 145.322 848.211 139.172 840.807 129.622ZM999.602 107.773H938.605C940.698 121.046 949.386 128.165 962.743 128.165C971.915 128.165 979.639 124.768 985.593 117.806L997.342 129.461C989.619 139.495 977.226 145.322 962.099 145.322C936.028 145.322 918.649 128.165 918.649 102.271C918.649 76.6987 935.391 58.4108 960.17 58.4108C983.985 58.4108 1000.08 75.0807 1000.08 100.166C1000.07 102.709 999.915 105.249 999.602 107.773ZM938.605 94.346C940.705 82.5262 948.268 75.5676 960.349 75.5712C972.09 75.5712 979.497 82.2041 980.461 94.346H938.605Z" fill="#0066F5"/>
</svg>
