<svg width="352" height="400" viewBox="0 0 352 400" fill="none" xmlns="http://www.w3.org/2000/svg">
<path fill-rule="evenodd" clip-rule="evenodd" d="M210.359 364.833H195.781C195.984 354.578 196.085 345.085 196.085 336.354L196.34 304.889C196.34 301.592 195.791 298.962 194.692 297C193.593 295.039 192.369 293.866 191.019 293.482V291.671L192.44 290.938C193.752 290.292 195.129 289.783 196.551 289.419C198.2 288.946 199.909 288.699 201.628 288.686C204.868 288.686 207.102 289.502 208.33 291.135C209.558 292.768 210.167 295.279 210.156 298.669C210.156 300.725 210.055 303.075 209.853 305.718C209.421 312.865 209.205 321.641 209.205 332.047V344.819C209.205 348.472 209.29 352.011 209.46 355.437C209.597 358.582 209.897 361.718 210.359 364.833ZM138.207 360.932V363.133C134.112 365.153 130.306 366.164 126.788 366.166C125.012 366.124 123.278 365.626 121.763 364.723C120.071 363.799 118.734 362.365 117.952 360.636C113.455 364.318 108.785 366.158 103.942 366.158C101.263 366.175 98.6042 365.711 96.098 364.79C93.5941 363.845 91.3008 362.439 89.3437 360.648C87.2947 358.807 85.6749 356.296 84.4844 353.114C83.2939 349.932 82.7013 346.251 82.7067 342.07C82.7117 339.299 83.0611 336.539 83.7474 333.849C84.4554 331.089 85.5452 328.435 86.9869 325.961C88.3893 323.493 90.1364 321.227 92.1782 319.227C94.2746 317.215 96.7586 315.627 99.4873 314.553C102.413 313.379 105.551 312.786 108.716 312.81C110.372 312.842 112.022 313.032 113.64 313.378C115.53 313.751 116.474 314.004 116.474 314.135C116.474 312.079 116.457 310.179 116.422 308.435C116.387 306.692 116.337 305.101 116.272 303.663C116.219 302.375 116.074 301.093 115.839 299.825C115.654 298.816 115.357 297.831 114.952 296.886C114.604 296.078 114.078 295.355 113.411 294.767C112.744 294.18 111.953 293.742 111.093 293.486V291.675L112.514 290.942C113.789 290.293 115.133 289.784 116.523 289.423C118.138 288.95 119.813 288.703 121.5 288.689C122.764 288.662 124.028 288.795 125.257 289.084C126.263 289.362 127.18 289.885 127.922 290.602C128.806 291.516 129.412 292.651 129.671 293.88C130.088 295.691 130.279 297.544 130.242 299.399V300.673C130.242 301.262 130.159 303.48 129.991 307.327C129.824 311.174 129.644 315.894 129.453 321.488C129.266 327.068 129.173 332.272 129.173 337.1C129.173 339.874 129.189 342.149 129.222 343.924C129.254 345.699 129.323 347.477 129.428 349.26C129.491 350.66 129.626 352.055 129.833 353.441C130.003 354.461 130.25 355.467 130.57 356.451C130.783 357.24 131.153 357.98 131.66 358.628C132.121 359.132 132.661 359.562 133.259 359.903C133.921 360.296 134.653 360.564 135.417 360.691C136.341 360.832 137.273 360.912 138.207 360.932ZM109.323 358.924C112.066 358.924 114.316 358.321 116.074 357.114L116.179 345.612V320.643C112.453 319.762 109.678 319.322 107.853 319.322C105.817 319.29 103.835 319.967 102.265 321.231C100.637 322.56 99.3928 324.28 98.6572 326.221C97.8578 328.222 97.2637 330.295 96.8836 332.41C96.5128 334.478 96.3258 336.574 96.3248 338.673C96.3248 345.035 97.5261 350.001 99.9287 353.572C102.331 357.143 105.463 358.923 109.323 358.912V358.924ZM73.8346 364.833C73.0896 359.613 72.717 352.339 72.717 343.009V333.167C72.717 331.862 72.8021 330.047 72.9721 327.712C73.1395 325.38 73.2232 323.724 73.2232 322.746C73.2259 316.385 70.722 313.204 65.7116 313.204C62.1914 313.204 58.4484 314.38 54.4827 316.731V318.541C54.6921 318.565 54.8975 318.614 55.0942 318.687C55.585 318.911 56.0307 319.218 56.4102 319.594C57.0335 320.157 57.5647 320.808 57.9854 321.527C58.5884 322.659 59.0168 323.871 59.2569 325.124C59.6497 326.95 59.837 328.813 59.8158 330.678L59.2569 364.833H73.8346ZM58.5804 297.682C58.2116 298.537 58.0297 299.458 58.0462 300.385C58.0379 301.277 58.2247 302.16 58.594 302.976C58.9634 303.792 59.5068 304.523 60.1883 305.118C61.5624 306.412 63.4079 307.122 65.3188 307.09C66.2292 307.1 67.1322 306.93 67.9735 306.591C68.8148 306.252 69.5771 305.751 70.2145 305.118C70.8753 304.511 71.3994 303.777 71.7535 302.962C72.1076 302.147 72.284 301.27 72.2716 300.385C72.2918 299.465 72.1199 298.55 71.7663 297.696C71.4127 296.843 70.8848 296.068 70.2145 295.419C69.5865 294.77 68.8274 294.254 67.9848 293.904C67.1423 293.555 66.2346 293.379 65.3188 293.387C64.3674 293.373 63.4227 293.545 62.5411 293.894C61.6596 294.243 60.8594 294.762 60.1883 295.419C59.4968 296.056 58.9492 296.827 58.5804 297.682ZM10.6281 364.833H26.3113C25.8944 363.331 25.658 361.786 25.6067 360.23L25.3516 357.098L25.2018 349.269C25.0668 344.08 25.0155 339.317 25.0479 334.978C26.098 334.978 27.8069 335.011 30.1744 335.076C32.5419 335.142 34.3695 335.175 35.6572 335.175C41.985 335.175 45.1489 333.103 45.1489 328.959C45.138 327.809 45.0201 326.663 44.7966 325.535C44.198 326.103 43.4794 326.538 42.691 326.809C42.0141 327.065 41.3042 327.23 40.5813 327.298C40.0089 327.329 39.1991 327.345 38.1516 327.345H25.1572C25.1545 319.746 25.3746 312.096 25.8173 304.396L34.9567 304.791C37.1397 304.884 39.2734 305.453 41.2008 306.455C43.1607 307.465 44.2945 308.688 44.6023 310.124H46.9873C47.7339 308.113 48.0025 305.963 47.7729 303.836C47.5946 301.743 46.8697 299.73 45.6673 297.987L26.53 298.283H9.16632L8.35645 300.385C8.88816 301.083 9.35951 301.823 9.76562 302.598C10.1029 303.523 10.3245 304.485 10.4257 305.461C10.6727 307.508 10.8079 309.566 10.8306 311.627V357.493L10.6281 364.833ZM182.884 337.266L183.803 336.891L183.787 334.564C183.787 333.621 183.755 332.702 183.686 331.803C183.571 330.588 183.392 329.379 183.151 328.182C182.896 326.766 182.489 325.381 181.936 324.048C181.316 322.651 180.533 321.327 179.604 320.103C178.604 318.728 177.371 317.528 175.96 316.553C174.308 315.481 172.492 314.672 170.578 314.159C168.194 313.495 165.724 313.173 163.245 313.205C158.809 313.146 154.474 314.495 150.894 317.046C147.279 319.6 144.516 323.063 142.605 327.436C140.694 331.809 139.738 336.686 139.738 342.066C139.768 346.176 140.42 349.814 141.694 352.981C142.968 356.147 144.685 358.666 146.845 360.538C148.952 362.379 151.405 363.806 154.069 364.739C156.832 365.688 159.744 366.16 162.674 366.135C165.082 366.142 167.483 365.877 169.829 365.346C172.128 364.835 174.348 364.029 176.429 362.948C178.346 361.972 180.1 360.719 181.633 359.232C183.061 357.828 184.101 356.094 184.654 354.191C185.229 352.199 185.229 350.09 184.654 348.097C182.286 351.49 179.536 353.871 176.405 355.241C173.503 356.553 170.347 357.245 167.148 357.272C163.598 357.264 160.375 355.877 157.478 353.111C154.582 350.344 153.067 346.531 152.935 341.672C152.935 339.944 152.898 338.702 152.834 337.952L175.879 338.248C178.824 338.248 181.159 337.921 182.884 337.266ZM158.875 320.399C159.969 319.678 161.264 319.303 162.584 319.322C163.983 319.301 165.351 319.715 166.492 320.502C167.667 321.331 168.61 322.433 169.234 323.709C169.917 325.07 170.429 326.507 170.756 327.988C171.096 329.525 171.284 331.091 171.315 332.663C169.112 332.697 165.998 332.795 161.973 332.958C157.948 333.121 154.937 333.219 152.939 333.25C153.282 331.441 153.731 329.653 154.283 327.894C154.769 326.397 155.39 324.945 156.138 323.555C156.768 322.298 157.708 321.214 158.875 320.399ZM239.304 364.833C238.559 359.613 238.186 352.338 238.186 343.009V333.167C238.186 331.862 238.271 330.047 238.441 327.712C238.609 325.38 238.692 323.724 238.692 322.746C238.695 316.385 236.191 313.204 231.181 313.204C227.66 313.204 223.919 314.38 219.956 316.731V318.541C220.164 318.564 220.368 318.613 220.563 318.687C221.056 318.909 221.503 319.217 221.883 319.594C222.507 320.156 223.038 320.808 223.459 321.527C224.062 322.658 224.489 323.871 224.726 325.124C225.122 326.95 225.311 328.812 225.289 330.678L224.726 364.833H239.304ZM224.044 297.684C223.677 298.538 223.497 299.458 223.515 300.385C223.505 301.276 223.69 302.159 224.058 302.975C224.425 303.791 224.966 304.521 225.645 305.118C227.018 306.412 228.862 307.121 230.772 307.09C231.683 307.1 232.586 306.93 233.428 306.591C234.27 306.253 235.033 305.751 235.671 305.118C236.332 304.511 236.856 303.777 237.21 302.962C237.565 302.147 237.741 301.27 237.728 300.385C237.749 299.465 237.577 298.55 237.223 297.696C236.87 296.842 236.342 296.068 235.671 295.419C235.043 294.769 234.283 294.254 233.44 293.904C232.596 293.555 231.688 293.379 230.772 293.387C229.821 293.373 228.877 293.545 227.996 293.894C227.115 294.244 226.316 294.762 225.645 295.419C224.956 296.057 224.411 296.829 224.044 297.684ZM269.763 305.915L268.593 314.234H278.311C279.412 314.224 280.509 314.101 281.583 313.867C282.755 313.622 283.492 313.207 283.794 312.62C284.009 313.402 284.111 314.209 284.098 315.019C284.098 319.029 281.12 321.035 275.165 321.038C274.625 321.038 273.499 320.988 271.788 320.888C270.076 320.788 268.917 320.739 268.309 320.742V343.3C268.277 344.247 268.277 345.245 268.309 346.286C268.342 347.328 268.386 348.365 268.435 349.395C268.482 350.389 268.653 351.375 268.945 352.329C269.201 353.187 269.566 354.01 270.034 354.779C270.499 355.5 271.157 356.084 271.937 356.467C272.843 356.906 273.845 357.124 274.857 357.102C277.08 357.083 279.288 356.744 281.409 356.096C283.672 355.43 285.098 354.542 285.673 353.43C286.109 354.418 286.287 355.497 286.189 356.569C286.091 357.641 285.722 358.673 285.114 359.571C283.864 361.578 281.91 363.176 279.251 364.368C276.567 365.565 273.646 366.175 270.694 366.154C267.517 366.154 264.886 365.796 262.802 365.078C260.899 364.486 259.237 363.322 258.056 361.752C256.963 360.231 256.202 358.507 255.821 356.688C255.377 354.389 255.174 352.053 255.214 349.714C255.214 347.234 255.382 343.553 255.72 338.67C256.057 333.786 256.226 330.214 256.226 327.952C256.226 324.103 255.922 321.803 255.315 321.054C253.969 319.382 252.161 318.119 250.103 317.413L250.609 314.431C251.021 314.414 251.429 314.347 251.824 314.234C252.634 313.992 253.423 313.69 254.185 313.33C255.517 312.664 256.72 311.778 257.74 310.711C259.178 309.272 260.422 307.66 261.442 305.915H269.763ZM316.958 364.245L318.173 364.735L316.922 366.849L312.063 377.171C311.314 378.905 309.954 380.32 308.228 381.163C306.417 382.091 304.226 382.556 301.656 382.556C300.106 382.548 298.569 382.282 297.112 381.767C295.606 381.243 294.514 380.574 293.836 379.759C293.14 383.154 293.68 385.993 295.456 388.275C297.233 390.558 299.678 391.699 302.794 391.699C304.342 391.718 305.885 391.524 307.378 391.123C308.75 390.74 310.028 390.091 311.135 389.214C312.175 388.405 313.151 387.522 314.055 386.571C315.022 385.491 315.847 384.299 316.513 383.021C317.315 381.533 317.969 380.241 318.477 379.148C318.984 378.054 319.611 376.626 320.356 374.864L341.052 325.732C342.78 321.588 343.644 318.652 343.644 316.924C343.644 314.444 342.429 313.204 339.999 313.204C336.912 313.328 333.957 314.462 331.613 316.423L331.82 318.233C332.97 318.851 333.545 319.977 333.545 321.61C333.545 323.243 333.071 325.347 332.123 327.921L325.575 345.979C325.134 347.111 324.777 348.272 324.506 349.454L324 351.509C323.933 351.312 323.518 350.454 322.757 348.937L321.514 346.468C316.773 333.688 314.066 325.404 313.391 321.618C312.581 318.68 311.501 316.544 310.151 315.208C308.802 313.872 306.67 313.204 303.757 313.204C302.026 313.239 300.315 313.574 298.704 314.194C297.094 314.745 295.566 315.501 294.16 316.443L294.266 318.253C294.533 318.332 294.788 318.448 295.023 318.596C295.567 318.946 296.077 319.342 296.55 319.78C297.303 320.468 297.99 321.222 298.603 322.032C299.48 323.228 300.246 324.498 300.89 325.826C301.778 327.606 302.516 329.453 303.097 331.349L312.188 359.204C312.573 360.431 313.282 361.537 314.245 362.411C315.016 363.192 315.938 363.816 316.958 364.245Z" fill="#11237D"/>
<path d="M285.96 8.997C283.372 8.53143 280.745 8.29773 278.113 8.29883H32.77C32.1861 8.29987 31.6264 8.52628 31.2135 8.92847C30.8006 9.33065 30.5682 9.87584 30.5671 10.4446V210.85C30.5637 220.364 33.8679 229.599 39.9414 237.049C110.765 210.345 235.254 117.075 291.407 10.3223C289.623 9.76409 287.804 9.32135 285.96 8.997Z" fill="#11237D"/>
<path d="M321.433 50.505V250.903C321.432 251.472 321.199 252.017 320.787 252.419C320.374 252.821 319.814 253.047 319.23 253.049H73.8873C67.3737 253.054 60.9428 251.628 55.074 248.875C127.209 220.747 252.096 126.152 306.616 18.7285C311.277 22.6831 315.012 27.5666 317.569 33.0488C320.125 38.5309 321.443 44.4839 321.433 50.505V50.505Z" fill="#4DC247"/>
</svg>
