<svg width="783" height="200" viewBox="0 0 783 200" fill="none" xmlns="http://www.w3.org/2000/svg">
<path d="M190.169 6.27947C188.3 5.94333 186.404 5.7746 184.503 5.77539H7.36633C6.94475 5.77615 6.54067 5.93961 6.24257 6.22999C5.94447 6.52037 5.77665 6.91399 5.77588 7.32464V152.017C5.77339 158.886 8.15902 165.553 12.5441 170.933C63.6783 151.652 153.559 84.3115 194.101 7.23636C192.814 6.83331 191.5 6.51365 190.169 6.27947Z" fill="#11237D"/>
<path d="M215.78 36.2472V180.934C215.779 181.345 215.612 181.738 215.313 182.029C215.015 182.319 214.611 182.482 214.19 182.483H37.0529C32.3501 182.487 27.707 181.457 23.4697 179.47C75.5513 159.162 165.719 90.8639 205.083 13.3047C208.448 16.1599 211.145 19.6858 212.99 23.6439C214.836 27.602 215.787 31.9 215.78 36.2472V36.2472Z" fill="#4DC247"/>
<path fill-rule="evenodd" clip-rule="evenodd" d="M568.05 152.227H545.265C545.581 136.197 545.739 121.359 545.739 107.713L546.138 58.5324C546.138 53.3781 545.279 49.2679 543.562 46.2016C541.845 43.1354 539.931 41.3022 537.821 40.7021V37.8722L540.043 36.7255C542.092 35.7154 544.246 34.9197 546.467 34.3518C549.045 33.6122 551.717 33.2263 554.404 33.2051C559.468 33.2051 562.959 34.4813 564.879 37.0337C566.799 39.5862 567.751 43.5115 567.734 48.8096C567.734 52.0238 567.576 55.6963 567.259 59.8271C566.584 70.9987 566.246 84.7167 566.246 100.981V120.944C566.246 126.653 566.379 132.186 566.645 137.541C566.859 142.457 567.328 147.358 568.05 152.227ZM455.273 146.129V149.569C448.872 152.726 442.923 154.306 437.425 154.311C434.648 154.245 431.939 153.466 429.57 152.054C426.926 150.611 424.835 148.369 423.614 145.667C416.584 151.421 409.284 154.298 401.714 154.298C397.528 154.323 393.372 153.598 389.455 152.159C385.541 150.682 381.956 148.484 378.897 145.685C375.695 142.808 373.163 138.883 371.302 133.909C369.441 128.936 368.515 123.182 368.523 116.646C368.531 112.315 369.077 108.001 370.15 103.798C371.257 99.483 372.96 95.3348 375.214 91.467C377.406 87.6102 380.136 84.0684 383.328 80.9427C386.605 77.7979 390.487 75.315 394.752 73.6367C399.326 71.8013 404.23 70.8748 409.177 70.9117C411.766 70.9613 414.344 71.2587 416.873 71.7995C419.827 72.3831 421.304 72.7777 421.304 72.9832C421.304 69.769 421.276 66.7994 421.222 64.0743C421.167 61.3492 421.089 58.8625 420.987 56.6142C420.905 54.6017 420.679 52.5972 420.31 50.6153C420.022 49.0394 419.557 47.4991 418.924 46.0221C418.38 44.7596 417.558 43.629 416.516 42.7106C415.473 41.7921 414.236 41.1083 412.892 40.7076V37.8776L415.114 36.7309C417.106 35.7173 419.208 34.9212 421.38 34.3572C423.904 33.6184 426.523 33.2322 429.159 33.2105C431.136 33.1681 433.11 33.3754 435.032 33.827C436.604 34.2623 438.037 35.079 439.197 36.2007C440.579 37.6283 441.525 39.4023 441.931 41.3241C442.582 44.154 442.882 47.0499 442.824 49.9494V51.9408C442.824 52.8615 442.693 56.3285 442.431 62.3418C442.17 68.3551 441.889 75.733 441.589 84.4755C441.298 93.1974 441.153 101.332 441.153 108.878C441.153 113.214 441.178 116.77 441.229 119.544C441.279 122.318 441.387 125.099 441.551 127.886C441.649 130.073 441.86 132.254 442.184 134.421C442.45 136.014 442.835 137.587 443.336 139.125C443.668 140.358 444.247 141.514 445.039 142.528C445.761 143.315 446.604 143.987 447.539 144.52C448.573 145.135 449.718 145.554 450.912 145.753C452.356 145.973 453.813 146.098 455.273 146.129ZM410.126 142.991C414.413 142.991 417.93 142.048 420.677 140.161L420.842 122.183V83.1561C415.019 81.7791 410.681 81.0907 407.829 81.0907C404.645 81.0404 401.548 82.0985 399.094 84.0747C396.549 86.1511 394.604 88.8398 393.455 91.8739C392.205 95.0014 391.277 98.2416 390.682 101.547C390.103 104.78 389.811 108.056 389.809 111.338C389.809 121.281 391.687 129.043 395.442 134.625C399.198 140.206 404.092 142.989 410.126 142.972V142.991ZM354.657 152.207C353.493 144.048 352.91 132.677 352.91 118.094V102.711C352.91 100.67 353.043 97.8345 353.309 94.1846C353.571 90.5388 353.701 87.9514 353.701 86.4224C353.706 76.4797 349.792 71.5083 341.96 71.5083C336.458 71.5083 330.608 73.3456 324.409 77.0202V79.8501C324.736 79.8867 325.057 79.9634 325.365 80.0782C326.132 80.4274 326.829 80.9077 327.422 81.4962C328.396 82.3749 329.226 83.3937 329.884 84.5172C330.827 86.2862 331.496 88.1809 331.871 90.14C332.485 92.9942 332.778 95.905 332.745 98.8209L331.871 152.207H354.657ZM330.814 47.2464C330.238 48.5828 329.953 50.0215 329.979 51.4709C329.966 52.865 330.258 54.2457 330.835 55.5213C331.413 56.797 332.262 57.9383 333.327 58.8694C335.475 60.8919 338.36 62.0008 341.346 61.952C342.769 61.9671 344.181 61.7017 345.496 61.172C346.811 60.6423 348.002 59.859 348.999 58.8694C350.032 57.9204 350.851 56.7727 351.404 55.4991C351.958 54.2255 352.233 52.8538 352.214 51.4709C352.246 50.0324 351.977 48.6027 351.424 47.2684C350.872 45.9341 350.046 44.723 348.999 43.7087C348.017 42.6938 346.831 41.8878 345.514 41.3414C344.197 40.795 342.778 40.5199 341.346 40.5336C339.859 40.5106 338.383 40.7799 337.005 41.3255C335.627 41.871 334.376 42.6816 333.327 43.7087C332.246 44.7052 331.39 45.91 330.814 47.2464ZM255.862 152.231H280.375C279.724 149.882 279.354 147.468 279.274 145.036L278.875 140.141L278.641 127.902C278.43 119.793 278.35 112.347 278.401 105.565C280.042 105.565 282.713 105.617 286.414 105.719C290.114 105.822 292.971 105.874 294.984 105.874C304.874 105.874 309.82 102.635 309.82 96.157C309.802 94.3606 309.618 92.5694 309.269 90.8054C308.333 91.694 307.21 92.3735 305.978 92.7968C304.92 93.198 303.81 93.4553 302.68 93.5613C301.785 93.6107 300.52 93.6353 298.882 93.6353H278.572C278.567 81.7567 278.911 69.8 279.603 57.7653L293.889 58.3818C297.301 58.5272 300.636 59.4163 303.648 60.9836C306.712 62.5619 308.484 64.4732 308.965 66.7174H312.693C313.86 63.5741 314.28 60.214 313.921 56.8898C313.642 53.6185 312.509 50.4711 310.63 47.7466L280.717 48.209H253.577L252.311 51.4951C253.142 52.5867 253.879 53.7436 254.514 54.9539C255.041 56.4001 255.387 57.903 255.545 59.4299C255.932 62.6289 256.143 65.8456 256.178 69.0664V140.757L255.862 152.231ZM525.106 109.122L526.543 108.537L526.517 104.899C526.517 103.426 526.467 101.989 526.359 100.583C526.179 98.6842 525.901 96.7952 525.524 94.9236C525.125 92.711 524.488 90.5453 523.625 88.4623C522.655 86.2783 521.432 84.2097 519.979 82.2969C518.416 80.1471 516.49 78.271 514.283 76.7481C511.702 75.0711 508.862 73.8076 505.871 73.0057C502.145 71.9672 498.284 71.4645 494.409 71.5137C487.475 71.4223 480.7 73.53 475.104 77.5188C469.454 81.5098 465.135 86.923 462.148 93.7584C459.16 100.594 457.667 108.216 457.667 116.626C457.713 123.05 458.732 128.737 460.724 133.685C462.715 138.634 465.399 142.572 468.775 145.498C472.069 148.376 475.903 150.606 480.066 152.064C484.385 153.547 488.937 154.286 493.516 154.247C497.28 154.257 501.033 153.843 504.7 153.014C508.294 152.215 511.763 150.954 515.017 149.265C518.013 147.74 520.755 145.782 523.15 143.457C525.383 141.263 527.008 138.551 527.872 135.578C528.771 132.463 528.771 129.167 527.872 126.053C524.171 131.355 519.874 135.077 514.979 137.218C510.443 139.269 505.51 140.351 500.51 140.393C494.961 140.381 489.923 138.213 485.396 133.889C480.868 129.565 478.501 123.605 478.294 116.009C478.294 113.309 478.237 111.367 478.136 110.195L514.156 110.658C518.76 110.658 522.41 110.146 525.106 109.122ZM487.579 82.7593C489.289 81.6327 491.313 81.0452 493.377 81.0762C495.562 81.0434 497.701 81.689 499.485 82.9197C501.321 84.215 502.794 85.9384 503.77 87.9321C504.839 90.0596 505.638 92.3059 506.149 94.6215C506.681 97.0238 506.974 99.4705 507.023 101.928C503.58 101.981 498.712 102.135 492.421 102.39C486.13 102.645 481.423 102.797 478.3 102.846C478.837 100.019 479.538 97.2232 480.402 94.4736C481.161 92.1341 482.131 89.8646 483.301 87.6916C484.285 85.7273 485.755 84.0323 487.579 82.7593ZM613.293 152.207C612.129 144.048 611.546 132.677 611.546 118.094V102.711C611.546 100.67 611.679 97.8343 611.945 94.1845C612.207 90.5387 612.338 87.9513 612.338 86.4223C612.342 76.4796 608.428 71.5083 600.597 71.5083C595.094 71.5083 589.246 73.3455 583.052 77.0201V79.85C583.377 79.8859 583.696 79.9625 584.001 80.0781C584.771 80.4253 585.47 80.9057 586.065 81.4961C587.039 82.3748 587.869 83.3936 588.527 84.5171C589.469 86.2855 590.137 88.1804 590.508 90.1399C591.127 92.9934 591.422 95.9045 591.387 98.8208L590.508 152.207H613.293ZM589.442 47.2486C588.868 48.5849 588.587 50.0228 588.615 51.4709C588.6 52.8635 588.889 54.2434 589.463 55.5189C590.037 56.7945 590.883 57.9365 591.944 58.8693C594.09 60.8909 596.973 61.9997 599.957 61.952C601.381 61.9671 602.794 61.7019 604.11 61.1722C605.426 60.6424 606.618 59.8591 607.616 58.8693C608.649 57.9204 609.468 56.7727 610.021 55.4991C610.575 54.2255 610.851 52.8538 610.831 51.4709C610.863 50.0324 610.594 48.6026 610.042 47.2683C609.489 45.934 608.664 44.7229 607.616 43.7087C606.633 42.6936 605.445 41.8876 604.127 41.3412C602.81 40.7947 601.39 40.5198 599.957 40.5335C598.471 40.511 596.996 40.7806 595.619 41.3261C594.242 41.8717 592.992 42.682 591.944 43.7087C590.867 44.7067 590.015 45.9122 589.442 47.2486ZM660.902 60.1559L659.072 73.1586H674.263C675.984 73.144 677.698 72.9518 679.377 72.5852C681.208 72.203 682.36 71.5536 682.833 70.637C683.169 71.8589 683.329 73.1206 683.308 74.3855C683.308 80.6536 678.653 83.7898 669.345 83.7939C668.501 83.7939 666.742 83.7158 664.066 83.5596C661.391 83.4034 659.579 83.3274 658.629 83.3315V118.591C658.579 120.071 658.579 121.631 658.629 123.258C658.68 124.886 658.75 126.508 658.826 128.117C658.899 129.672 659.167 131.212 659.623 132.704C660.023 134.045 660.595 135.331 661.326 136.532C662.052 137.66 663.081 138.572 664.301 139.171C665.716 139.858 667.283 140.199 668.864 140.164C672.339 140.135 675.789 139.605 679.105 138.592C682.643 137.55 684.871 136.162 685.77 134.424C686.452 135.969 686.729 137.655 686.576 139.331C686.424 141.007 685.847 142.619 684.896 144.023C682.943 147.159 679.888 149.658 675.731 151.52C671.536 153.392 666.971 154.345 662.357 154.313C657.391 154.313 653.279 153.752 650.022 152.63C647.047 151.706 644.449 149.886 642.604 147.433C640.895 145.055 639.705 142.36 639.11 139.516C638.416 135.924 638.098 132.271 638.16 128.616C638.16 124.74 638.424 118.986 638.952 111.353C639.479 103.72 639.743 98.1366 639.743 94.6018C639.743 88.5844 639.268 84.99 638.319 83.8186C636.215 81.2052 633.389 79.2309 630.173 78.1279L630.964 73.4669C631.607 73.4399 632.245 73.3364 632.863 73.1586C634.128 72.7807 635.362 72.3087 636.553 71.7468C638.634 70.7051 640.514 69.32 642.11 67.653C644.358 65.4036 646.302 62.8843 647.895 60.1559H660.902ZM734.671 151.31L736.57 152.074L734.614 155.379L727.019 171.514C725.848 174.223 723.722 176.436 721.025 177.753C718.193 179.204 714.769 179.929 710.752 179.929C708.33 179.918 705.928 179.501 703.651 178.696C701.296 177.878 699.589 176.832 698.53 175.558C697.442 180.865 698.286 185.302 701.062 188.869C703.839 192.437 707.661 194.221 712.531 194.221C714.951 194.251 717.363 193.948 719.696 193.321C721.84 192.722 723.838 191.707 725.569 190.337C727.194 189.073 728.72 187.692 730.133 186.206C731.644 184.518 732.934 182.654 733.975 180.657C735.228 178.331 736.251 176.312 737.044 174.603C737.838 172.893 738.817 170.661 739.981 167.907L772.33 91.1113C775.031 84.6336 776.381 80.0445 776.381 77.3441C776.381 73.4681 774.482 71.5302 770.685 71.5302C765.859 71.7236 761.241 73.496 757.577 76.5611L757.9 79.391C759.697 80.3569 760.596 82.1161 760.596 84.6685C760.596 87.221 759.855 90.5092 758.374 94.5331L748.14 122.758C747.45 124.527 746.892 126.343 746.469 128.19L745.678 131.402C745.572 131.094 744.924 129.754 743.734 127.382L741.791 123.523C734.382 103.547 730.15 90.5996 729.095 84.6809C727.829 80.0897 726.141 76.7502 724.031 74.6622C721.921 72.5742 718.59 71.5302 714.037 71.5302C711.331 71.5848 708.656 72.1089 706.138 73.0777C703.622 73.9384 701.234 75.1201 699.037 76.5919L699.201 79.4218C699.62 79.5458 700.018 79.7263 700.385 79.9582C701.234 80.5052 702.033 81.1242 702.771 81.8078C703.948 82.8841 705.022 84.0624 705.98 85.3282C707.352 87.1972 708.548 89.1821 709.556 91.2593C710.943 94.041 712.097 96.9276 713.005 99.8908L727.215 143.431C727.816 145.348 728.925 147.077 730.43 148.443C731.634 149.664 733.076 150.638 734.671 151.31Z" fill="#11237D"/>
</svg>
