<svg width="704" height="200" viewBox="0 0 704 200" fill="none" xmlns="http://www.w3.org/2000/svg">
<path fill-rule="evenodd" clip-rule="evenodd" d="M55.7091 12.8945V187.106H60.6819V12.8945H55.617H55.7091ZM86.5591 137.206C91.0531 137.206 95.363 135.406 98.5407 132.202C101.718 128.999 103.504 124.654 103.504 120.123C103.504 115.593 101.718 111.248 98.5407 108.044C95.363 104.841 91.0531 103.041 86.5591 103.041C82.0652 103.041 77.7552 104.841 74.5775 108.044C71.3998 111.248 69.6146 115.593 69.6146 120.123C69.6146 124.654 71.3998 128.999 74.5775 132.202C77.7552 135.406 82.0652 137.206 86.5591 137.206ZM103.458 77.8816C103.577 80.1967 103.229 82.5122 102.432 84.687C101.636 86.8618 100.409 88.8505 98.8259 90.5319C97.2428 92.2133 95.3368 93.5523 93.224 94.4673C91.1111 95.3823 88.8357 95.8541 86.5361 95.8541C84.2366 95.8541 81.9611 95.3823 79.8482 94.4673C77.7354 93.5523 75.8294 92.2133 74.2463 90.5319C72.6632 88.8505 71.4362 86.8618 70.6399 84.687C69.8436 82.5122 69.4948 80.1967 69.6146 77.8816C69.8408 73.5112 71.7223 69.3949 74.8709 66.382C78.0195 63.3692 82.195 61.6895 86.5361 61.6895C90.8772 61.6895 95.0527 63.3692 98.2013 66.382C101.35 69.3949 103.231 73.5112 103.458 77.8816ZM29.8779 116.085C34.3718 116.085 38.6817 114.285 41.8595 111.081C45.0372 107.878 46.8224 103.533 46.8224 99.0024C46.8224 94.4719 45.0372 90.127 41.8595 86.9234C38.6817 83.7198 34.3718 81.9201 29.8779 81.9201C25.3839 81.9201 21.074 83.7198 17.8963 86.9234C14.7186 90.127 12.9333 94.4719 12.9333 99.0024C12.9333 103.533 14.7186 107.878 17.8963 111.081C21.074 114.285 25.3839 116.085 29.8779 116.085Z" fill="#1DAFEC"/>
<path fill-rule="evenodd" clip-rule="evenodd" d="M612.79 35.2596V164.63H633.833V120.3C633.833 109.02 635.26 101.036 638.207 96.394C641.2 91.7984 646.357 89.5239 653.678 89.5239C659.434 89.5239 663.578 91.195 666.11 94.4908C668.735 97.7401 670.024 103.078 670.024 110.413V164.63H691.067V108.463C691.067 95.6512 688.442 86.321 683.239 80.4721C680.084 77.1054 676.246 74.4632 671.988 72.7251C667.729 70.9869 663.149 70.1936 658.559 70.3991C649.311 70.4871 640.446 74.1413 633.787 80.6114V32.6602L612.79 35.2132V35.2596ZM142.303 164.63V35.2594L163.346 32.7063V83.582C167.083 79.3652 171.671 76.003 176.802 73.7212C181.934 71.4393 187.491 70.2906 193.099 70.3522C198.708 70.4137 204.238 71.6841 209.319 74.078C214.401 76.472 218.915 79.934 222.56 84.2319C230.71 93.4229 234.808 104.842 234.808 118.489C234.808 132.647 230.664 144.299 222.468 153.536C214.318 162.681 204.004 167.276 191.571 167.276C186.284 167.255 181.055 166.158 176.197 164.053C171.339 161.947 166.953 158.875 163.3 155.021V164.63H142.303ZM213.259 119.464C213.605 111.664 211.08 104.009 206.168 97.972C201.379 92.3088 195.393 89.5237 188.164 89.5237C184.615 89.4041 181.084 90.0742 177.821 91.4862C174.558 92.8982 171.644 95.0175 169.286 97.6935C164.497 103.125 162.103 110.134 162.103 118.814C161.715 126.578 164.247 134.204 169.194 140.167C171.505 142.852 174.385 144.979 177.62 146.393C180.855 147.807 184.364 148.471 187.888 148.337C191.316 148.411 194.717 147.716 197.847 146.303C200.976 144.89 203.755 142.794 205.984 140.167C210.864 134.643 213.259 127.727 213.259 119.464ZM271.92 72.9523H250.97V164.631H271.92V117.097C271.92 99.6435 277.629 90.9166 289.141 90.9166C293.384 91.0923 297.462 92.62 300.79 95.2801L310.413 75.8768C304.382 72.2096 298.58 70.4457 293.055 70.4457C288.864 70.4457 285.273 71.1884 282.234 72.7667C278.361 74.9576 274.876 77.7811 271.92 81.1221V72.9523ZM403.24 72.9517H382.197V83.5817C378.46 79.3883 373.88 76.0447 368.761 73.7731C363.643 71.5015 358.104 70.3539 352.512 70.4066C346.92 70.4593 341.403 71.711 336.328 74.0787C331.252 76.4463 326.735 79.8756 323.076 84.1388C314.926 93.3298 310.874 104.749 310.874 118.489C310.437 131.301 314.793 143.81 323.076 153.536C326.741 157.744 331.231 161.142 336.263 163.516C341.295 165.889 346.76 167.186 352.314 167.326C357.868 167.465 363.39 166.444 368.533 164.327C373.676 162.209 378.329 159.041 382.197 155.021V164.63H403.24V72.9517ZM339.284 139.981C334.587 134.457 332.285 127.309 332.285 118.489C332.054 110.93 334.613 103.553 339.468 97.7861C344.348 92.3086 350.38 89.5234 357.609 89.5234C361.124 89.4092 364.619 90.0829 367.844 91.4957C371.069 92.9084 373.943 95.0252 376.258 97.6932C381.046 103.31 383.487 110.366 383.487 119C383.781 126.738 381.222 134.311 376.304 140.26C371.469 145.644 365.207 148.337 357.425 148.337C350.15 148.337 344.072 145.552 339.284 139.981ZM423.73 72.9526H444.865V81.4009C452.232 74.0666 460.474 70.3995 469.683 70.3995C480.273 70.3995 488.515 73.7417 494.409 80.4725C499.52 86.1821 502.098 95.5124 502.098 108.417V164.631H480.964V113.43C480.964 104.378 479.721 98.1118 477.28 94.6768C474.84 91.1954 470.373 89.4314 463.973 89.4314C457.02 89.4314 452.048 91.7524 449.147 96.3943C446.292 100.99 444.865 108.974 444.865 120.393V164.631H423.73V72.9526ZM534.145 100.269C531.05 104.933 529.4 110.418 529.403 116.029C529.403 123.539 532.362 130.741 537.63 136.052C542.897 141.362 550.041 144.345 557.49 144.345C564.94 144.345 572.084 141.362 577.351 136.052C582.619 130.741 585.578 123.539 585.578 116.029H605.699C605.696 127.28 601.821 138.182 594.734 146.873C587.648 155.565 577.79 161.51 566.842 163.692C555.894 165.874 544.533 164.16 534.699 158.841C524.865 153.522 517.166 144.928 512.915 134.525C508.664 124.122 508.126 112.555 511.39 101.796C514.655 91.0372 521.522 81.7537 530.818 75.529C540.115 69.3043 551.266 66.5241 562.369 67.6625C573.472 68.801 583.839 73.7877 591.702 81.7719L577.428 96.069C573.508 92.0861 568.502 89.3672 563.046 88.2574C557.59 87.1475 551.93 87.6968 546.785 89.8354C541.639 91.9741 537.24 95.6056 534.145 100.269Z" fill="#20365C"/>
</svg>
