<svg width="200" height="200" viewBox="0 0 200 200" fill="none" xmlns="http://www.w3.org/2000/svg">
<path fill-rule="evenodd" clip-rule="evenodd" d="M97.7757 12.8945V187.106H102.749V12.8945H97.6836H97.7757ZM128.626 137.206C133.12 137.206 137.43 135.406 140.607 132.202C143.785 128.999 145.57 124.654 145.57 120.123C145.57 115.593 143.785 111.248 140.607 108.044C137.43 104.841 133.12 103.041 128.626 103.041C124.132 103.041 119.822 104.841 116.644 108.044C113.466 111.248 111.681 115.593 111.681 120.123C111.681 124.654 113.466 128.999 116.644 132.202C119.822 135.406 124.132 137.206 128.626 137.206ZM145.524 77.8816C145.644 80.1967 145.295 82.5122 144.499 84.687C143.703 86.8618 142.476 88.8505 140.893 90.5319C139.309 92.2133 137.403 93.5523 135.291 94.4673C133.178 95.3823 130.902 95.8541 128.603 95.8541C126.303 95.8541 124.028 95.3823 121.915 94.4673C119.802 93.5523 117.896 92.2133 116.313 90.5319C114.73 88.8505 113.503 86.8618 112.707 84.687C111.91 82.5122 111.561 80.1967 111.681 77.8816C111.907 73.5112 113.789 69.3949 116.938 66.382C120.086 63.3692 124.262 61.6895 128.603 61.6895C132.944 61.6895 137.119 63.3692 140.268 66.382C143.417 69.3949 145.298 73.5112 145.524 77.8816ZM71.9445 116.085C76.4385 116.085 80.7484 114.285 83.9261 111.081C87.1038 107.878 88.889 103.533 88.889 99.0024C88.889 94.4719 87.1038 90.127 83.9261 86.9234C80.7484 83.7198 76.4385 81.9201 71.9445 81.9201C67.4505 81.9201 63.1407 83.7198 59.9629 86.9234C56.7852 90.127 55 94.4719 55 99.0024C55 103.533 56.7852 107.878 59.9629 111.081C63.1407 114.285 67.4505 116.085 71.9445 116.085Z" fill="#1DAFEC"/>
</svg>
