<svg width="688" height="400" viewBox="0 0 688 400" fill="none" xmlns="http://www.w3.org/2000/svg">
<path fill-rule="evenodd" clip-rule="evenodd" d="M340.895 4.60742V220.784H347.047V4.60742H340.782H340.895ZM379.061 158.863C384.62 158.863 389.952 156.629 393.883 152.654C397.815 148.679 400.023 143.287 400.023 137.665C400.023 132.044 397.815 126.652 393.883 122.677C389.952 118.702 384.62 116.468 379.061 116.468C373.501 116.468 368.169 118.702 364.238 122.677C360.307 126.652 358.098 132.044 358.098 137.665C358.098 143.287 360.307 148.679 364.238 152.654C368.169 156.629 373.501 158.863 379.061 158.863ZM399.966 85.2487C400.114 88.1214 399.683 90.9946 398.698 93.6933C397.713 96.392 396.195 98.8597 394.236 100.946C392.278 103.033 389.92 104.694 387.306 105.829C384.692 106.965 381.877 107.55 379.032 107.55C376.187 107.55 373.372 106.965 370.759 105.829C368.145 104.694 365.787 103.033 363.828 100.946C361.87 98.8597 360.352 96.392 359.367 93.6933C358.382 90.9946 357.95 88.1214 358.098 85.2487C358.378 79.8254 360.706 74.7177 364.601 70.9791C368.496 67.2404 373.662 65.1561 379.032 65.1561C384.403 65.1561 389.568 67.2404 393.463 70.9791C397.359 74.7177 399.686 79.8254 399.966 85.2487ZM308.939 132.654C314.499 132.654 319.831 130.421 323.762 126.446C327.693 122.47 329.902 117.079 329.902 111.457C329.902 105.835 327.693 100.444 323.762 96.4684C319.831 92.4932 314.499 90.2599 308.939 90.2599C303.38 90.2599 298.048 92.4932 294.117 96.4684C290.185 100.444 287.977 105.835 287.977 111.457C287.977 117.079 290.185 122.47 294.117 126.446C298.048 130.421 303.38 132.654 308.939 132.654Z" fill="#1DAFEC"/>
<path fill-rule="evenodd" clip-rule="evenodd" d="M586.606 231.498V392.032H612.638V337.023C612.638 323.026 614.404 313.119 618.049 307.358C621.752 301.656 628.132 298.834 637.189 298.834C644.309 298.834 649.436 300.907 652.569 304.997C655.816 309.029 657.411 315.653 657.411 324.754V392.032H683.443V322.335C683.443 306.437 680.196 294.859 673.759 287.601C669.856 283.424 665.108 280.145 659.84 277.988C654.571 275.831 648.905 274.847 643.227 275.102C631.786 275.211 620.82 279.746 612.581 287.774V228.272L586.606 231.441V231.498ZM4.55701 392.032V231.498L30.5891 228.33V291.46C35.2118 286.228 40.8879 282.056 47.2365 279.224C53.585 276.393 60.4592 274.967 67.3975 275.044C74.3357 275.12 81.1776 276.697 87.4637 279.667C93.7498 282.638 99.3348 286.934 103.844 292.267C113.926 303.672 118.996 317.842 118.996 334.776C118.996 352.345 113.869 366.802 103.73 378.265C93.6472 389.612 80.8875 395.315 65.5075 395.315C58.9661 395.288 52.4971 393.928 46.4876 391.315C40.4781 388.702 35.0514 384.891 30.5322 380.108V392.032H4.55701ZM92.3371 335.986C92.7655 326.306 89.6413 316.808 83.5648 309.317C77.6406 302.289 70.2354 298.833 61.2922 298.833C56.902 298.685 52.5333 299.516 48.4968 301.269C44.4603 303.021 40.855 305.651 37.9374 308.971C32.0132 315.71 29.0511 324.408 29.0511 335.179C28.5716 344.813 31.7043 354.276 37.8234 361.676C40.6831 365.007 44.2454 367.647 48.2479 369.402C52.2504 371.156 56.5912 371.98 60.9504 371.814C65.1913 371.905 69.3994 371.043 73.2708 369.29C77.1421 367.537 80.5803 364.936 83.3369 361.676C89.375 354.821 92.3371 346.239 92.3371 335.986ZM164.908 278.27H138.99V392.032H164.908V333.049C164.908 311.391 171.971 300.562 186.212 300.562C191.462 300.78 196.507 302.676 200.624 305.976L212.529 281.899C205.067 277.349 197.89 275.16 191.054 275.16C185.87 275.16 181.427 276.081 177.668 278.04C172.877 280.759 168.565 284.262 164.908 288.408V278.27ZM327.367 278.269H301.335V291.46C296.711 286.256 291.044 282.107 284.712 279.289C278.381 276.47 271.528 275.046 264.61 275.111C257.692 275.177 250.867 276.73 244.588 279.668C238.31 282.606 232.721 286.861 228.194 292.151C218.112 303.556 213.099 317.726 213.099 334.776C212.559 350.674 217.947 366.196 228.194 378.265C232.729 383.487 238.283 387.704 244.509 390.649C250.734 393.594 257.495 395.203 264.365 395.376C271.236 395.55 278.068 394.282 284.43 391.655C290.793 389.027 296.548 385.095 301.335 380.108V392.031H327.367V278.269ZM248.245 361.445C242.435 354.591 239.587 345.72 239.587 334.776C239.301 325.395 242.468 316.241 248.473 309.086C254.511 302.289 261.973 298.833 270.916 298.833C275.264 298.691 279.589 299.527 283.578 301.28C287.567 303.033 291.122 305.66 293.986 308.971C299.911 315.94 302.93 324.696 302.93 335.41C303.293 345.012 300.128 354.41 294.043 361.791C288.062 368.473 280.315 371.813 270.688 371.813C261.688 371.813 254.169 368.357 248.245 361.445ZM352.715 278.271H378.861V288.754C387.975 279.653 398.172 275.102 409.564 275.102C422.666 275.102 432.862 279.25 440.154 287.602C446.477 294.687 449.666 306.265 449.666 322.278V392.032H423.52V328.498C423.52 317.266 421.982 309.49 418.963 305.228C415.944 300.908 410.419 298.719 402.501 298.719C393.9 298.719 387.748 301.599 384.159 307.359C380.627 313.061 378.861 322.969 378.861 337.139V392.032H352.715V278.271ZM489.312 312.167C485.484 317.954 483.442 324.761 483.446 331.724C483.446 341.042 487.106 349.98 493.623 356.569C500.139 363.158 508.977 366.86 518.193 366.86C527.409 366.86 536.247 363.158 542.763 356.569C549.28 349.98 552.941 341.042 552.941 331.724H577.833C577.829 345.685 573.035 359.212 564.268 369.998C555.502 380.783 543.306 388.159 529.762 390.867C516.218 393.576 502.164 391.448 489.998 384.848C477.831 378.248 468.307 367.584 463.048 354.675C457.789 341.766 457.123 327.412 461.162 314.062C465.201 300.711 473.696 289.192 485.197 281.468C496.697 273.743 510.492 270.294 524.228 271.706C537.964 273.119 550.789 279.307 560.517 289.214L542.858 306.955C538.008 302.013 531.815 298.639 525.066 297.262C518.317 295.885 511.315 296.566 504.949 299.22C498.583 301.874 493.141 306.38 489.312 312.167Z" fill="#20365C"/>
</svg>
