<svg width="928" height="200" viewBox="0 0 928 200" fill="none" xmlns="http://www.w3.org/2000/svg">
<path fill-rule="evenodd" clip-rule="evenodd" d="M311.405 63.9805H296.232V142.359H311.405V63.9805ZM370.129 114.55C370.129 125.367 363.197 130.227 353.967 130.227C344.737 130.227 338.568 125.367 338.568 115.098V87.166H323.395V118.635C323.395 134.303 333.181 143.465 349.455 143.465C359.684 143.465 365.401 139.683 369.234 135.409H370.119L371.438 142.369H385.396V87.166H370.129V114.55ZM500.611 118.965C501.6 126.359 507.863 131.437 518.967 131.437C527.105 131.437 532.492 129.006 534.366 124.477H549.36C547.043 135.966 535.836 143.464 519.005 143.464C498.887 143.464 485.466 132.316 485.466 115.211C485.466 97.2163 499.434 86.0586 518.016 86.0586C534.027 86.0586 548.993 94.4647 549.097 114.322C549.099 115.875 548.989 117.427 548.767 118.965H500.611ZM534.197 108.497C533.311 102.398 527.708 98.0957 518.025 98.0957H517.978C507.976 98.0957 502.363 102.653 500.94 108.497H534.197ZM574.875 95.0909H573.933L572.501 87.1387H558.713V142.37H573.886V118.636C573.886 107.922 580.036 101.965 591.479 101.965C593.558 101.936 595.635 102.12 597.677 102.514V87.167H595.557C585.442 87.167 579.16 89.2662 574.875 95.0909ZM671.3 125.14H672.176L684.052 87.166H699.122L680.539 142.369H663.935L650.956 107.146H650.08L636.885 142.369H620.384L601.802 87.166H616.871L628.964 125.036H629.953L642.706 90.589H658.321L671.3 125.14ZM759.512 126.295V107.818C759.512 92.8028 746.863 86.0703 731.135 86.0703C714.427 86.0703 703.982 94.0226 702.55 105.927H717.723C718.825 100.736 723.223 97.871 731.135 97.871C739.046 97.871 744.32 100.85 744.32 106.92V108.329L719.578 110.22C708.145 111.109 699.8 116.187 699.8 127.004C699.8 138.152 709.369 143.448 723.44 143.448C734.798 143.448 741.721 140.27 745.959 135.476H746.713C749.096 140.866 753.927 142.351 759.183 142.351H765.559V131.108H764.127C760.934 131.108 759.512 129.567 759.512 126.295ZM744.33 120.442C744.33 129.169 733.97 132.035 725.088 132.035C719.042 132.035 715.086 130.493 715.086 126.295C715.086 122.513 718.495 120.669 723.562 120.224L744.339 118.683L744.33 120.442ZM797.901 127.135L815.608 87.166H831.874L806.369 142.369H788.219L762.601 87.166H778.989L796.913 127.135H797.901ZM880.378 124.477C878.495 129.006 873.117 131.437 864.979 131.437C853.875 131.437 847.612 126.359 846.623 118.965H894.779C895.001 117.427 895.111 115.875 895.109 114.322C895.005 94.4647 880.039 86.0586 864.028 86.0586C845.446 86.0586 831.488 97.2163 831.488 115.211C831.488 132.316 844.899 143.464 865.017 143.464C881.848 143.464 893.055 135.966 895.372 124.477H880.378ZM863.99 98.0957C873.672 98.0957 879.276 102.398 880.162 108.497H846.915C848.356 102.653 853.95 98.0957 863.953 98.0957H863.99ZM279.383 76.1486C274.984 76.1486 271.575 78.2384 271.575 83.0986V87.1646H288.679V99.249H271.575V142.367H256.298V99.2584H243.207V87.1646H256.298V82.3232C256.298 69.9646 265.312 63.998 276.529 63.998C280.425 64.0085 284.29 64.6799 287.963 65.9837L285.429 77.028C283.462 76.4634 281.429 76.1677 279.383 76.1486ZM418.878 71.6016H404.751L403.96 87.1657H392.017V99.2595H403.677V126.473C403.677 135.74 408.386 143.493 422.514 143.493C426.176 143.493 429.828 143.088 433.401 142.283V130.662C431.341 131.126 429.24 131.385 427.129 131.437C419.547 131.437 418.888 127.135 418.888 123.816V99.2312H433.957V87.1657H418.878V71.6016ZM452.445 71.6016H466.526V87.1657H481.642V99.2312H466.526V123.816C466.526 127.135 467.185 131.437 474.767 131.437C476.878 131.385 478.979 131.126 481.039 130.662V142.255C477.476 143.067 473.834 143.482 470.18 143.493C456.053 143.493 451.343 135.74 451.343 126.473V99.2595H439.683V87.1657H451.654L452.445 71.6016Z" fill="#2A3362"/>
<path d="M32 61.889C32 53.029 34.5806 45.4644 39.9962 40.0273L49.4146 49.4831C38.9319 59.9695 48.0866 92.5728 77.9334 122.566C107.78 152.56 140.274 161.741 150.747 151.236L160.165 160.692C142.496 178.431 102.252 165.845 68.5621 132.013C45.1951 108.543 32 81.9162 32 61.889Z" fill="#009A46"/>
<path d="M91.3922 168.844C82.5672 168.844 75.0325 166.254 69.6075 160.817L79.0259 151.361C89.4897 161.866 121.964 152.675 151.839 122.691C181.714 92.7069 190.85 60.1036 180.386 49.5983L189.805 40.1426C207.483 57.8815 194.938 98.2858 161.239 132.109C137.862 155.606 111.34 168.844 91.3922 168.844Z" fill="#FF5805"/>
<path d="M164.356 118.577C158.639 102.049 146.961 84.3855 131.467 68.8403C97.7779 35.0077 57.5332 22.4127 39.8643 40.1611C38.6117 41.4282 39.6948 44.558 42.2943 47.1678C44.8937 49.7776 48.0112 50.8555 49.2639 49.5979C59.7371 39.0926 92.2116 48.2836 122.077 78.2771C136.205 92.4607 146.735 108.299 151.811 122.955C156.256 135.806 155.823 146.169 150.643 151.37C149.381 152.627 150.474 155.767 153.064 158.367C155.654 160.967 158.781 162.064 160.043 160.797C169.094 151.71 170.629 136.695 164.356 118.577Z" fill="#F5AFCB"/>
<path d="M189.786 40.1601C180.716 31.0542 165.778 29.5129 147.714 35.8199C131.26 41.55 113.657 53.2846 98.1734 68.8298C64.4839 102.653 51.9387 143.057 69.6075 160.806C70.8696 162.063 73.9871 160.976 76.5865 158.375C79.186 155.775 80.2691 152.636 79.0071 151.369C68.515 140.863 77.6979 108.26 107.573 78.2666C121.701 64.083 137.476 53.5115 152.075 48.4149C164.874 43.9613 175.197 44.3868 180.386 49.5874C181.639 50.845 184.766 49.7576 187.356 47.1478C189.946 44.5381 191.039 41.4177 189.786 40.1601Z" fill="#FF9B00"/>
</svg>
