<svg width="656" height="200" viewBox="0 0 656 200" fill="none" xmlns="http://www.w3.org/2000/svg">
<path d="M344.918 30.2902C345 30.1507 345.096 30.1507 345.21 30.2902L345.038 30.4297L344.918 30.2902Z" fill="#0124DD"/>
<path d="M198.835 79.026C200.672 73.4828 202.415 68.244 204.119 63.0497C204.328 62.4154 204.754 62.2696 205.308 62.1681C214.509 60.4556 223.748 58.9969 233.146 59.4599C239.778 59.7707 246.155 61.1216 251.865 64.6733C259.61 69.4808 263.152 76.7238 263.654 85.6031C263.946 90.7086 263.113 95.7508 262.382 100.749C260.863 110.934 259.298 121.108 257.83 131.293C257.789 131.721 257.635 132.129 257.382 132.476C257.129 132.823 256.787 133.096 256.392 133.266C250.403 136.545 243.904 138.34 237.228 139.431C228.965 140.859 220.538 141.072 212.213 140.065C205.276 139.196 198.809 137.046 193.773 131.959C191.588 129.727 189.891 127.066 188.791 124.146C187.691 121.225 187.212 118.108 187.383 114.993C187.555 111.878 188.374 108.832 189.788 106.049C191.202 103.266 193.181 100.807 195.598 98.8269C200.761 94.5902 206.866 92.4845 213.294 91.1209C223.029 89.066 232.853 89.345 242.683 90.0934C243.911 90.1822 244.178 89.808 244.235 88.7171C244.674 81.0683 240.07 75.5758 231.988 74.098C226.38 73.0706 220.873 73.9585 215.367 74.8591C209.748 75.7812 204.218 77.1752 198.835 79.026ZM233.222 102.1C229.722 102.077 226.227 102.333 222.768 102.867C219.029 103.501 215.399 104.484 212.385 106.958C208.977 109.755 208.067 113.509 208.741 117.645C209.377 121.418 212.022 123.486 215.45 124.704C217.021 125.255 218.655 125.606 220.314 125.75C226.444 126.34 232.395 125.274 238.309 123.816C238.71 123.763 239.078 123.565 239.342 123.26C239.607 122.955 239.751 122.564 239.746 122.16C240.553 116.167 241.354 110.167 242.245 104.186C242.397 103.152 242.054 102.956 241.189 102.791C238.555 102.357 235.891 102.126 233.222 102.1Z" fill="#114185"/>
<path d="M482.706 120.796C481.688 123.878 480.798 126.637 479.857 129.396C479.107 131.66 478.305 133.905 477.593 136.189C477.525 136.538 477.355 136.86 477.103 137.112C476.852 137.365 476.531 137.538 476.182 137.609C466.453 140.197 456.597 141.599 446.551 140.337C435.105 138.897 425.644 133.994 419.845 123.523C416.277 117.041 415.146 109.982 415.629 102.707C416.551 88.8684 422.331 77.3951 433.077 68.5095C439.607 63.1058 447.225 60.3278 455.605 59.5033C461.385 58.9388 467.133 59.0467 472.774 60.6132C484.257 63.7844 491.913 72.6954 493.382 84.4922C494.227 91.2721 493.382 97.9316 492.282 104.597C492.148 105.428 491.728 105.454 491.093 105.454C488.009 105.454 484.918 105.454 481.834 105.454C466.998 105.454 452.161 105.454 437.324 105.454C436.129 105.454 435.779 105.745 435.76 106.969C435.595 116.94 441.114 123.523 450.938 125.204C458.2 126.472 465.264 125.375 472.316 123.84C475.842 123.054 479.313 122.037 482.706 120.796ZM456.763 92.5089H471.006C475.355 92.5089 475.355 92.5089 475.501 88.1707C475.8 79.3866 470.414 73.6595 461.659 73.1711C451.186 72.5813 441.311 80.1477 438.768 91.3736C438.558 92.306 438.768 92.5343 439.722 92.5279C445.387 92.4835 451.04 92.5089 456.763 92.5089Z" fill="#114185"/>
<path d="M519.269 140.59C509.933 140.528 500.665 138.987 491.813 136.024C490.929 135.719 490.694 135.466 491.012 134.508C492.466 130.115 493.858 125.701 495.19 121.265C495.52 120.174 495.908 120.263 496.786 120.682C505.288 124.83 514.89 126.18 524.21 124.538C526.397 124.206 528.472 123.358 530.264 122.064C531.092 121.491 531.782 120.74 532.281 119.866C532.781 118.992 533.077 118.018 533.149 117.014C533.221 116.011 533.067 115.004 532.697 114.068C532.328 113.132 531.752 112.291 531.014 111.606C529.398 110.113 527.583 108.85 525.622 107.851C520.757 105.137 515.81 102.593 511.188 99.4475C498.769 90.9677 500.283 73.317 512.51 65.573C517.928 62.1417 523.86 60.423 530.162 59.7697C540.666 58.6852 550.821 60.48 560.829 63.4863C561.745 63.759 561.98 64.0064 561.63 64.9768C560.123 69.1437 558.667 73.336 557.3 77.5537C556.938 78.6636 556.505 78.5811 555.647 78.1879C549.387 75.2416 542.532 73.7662 535.611 73.8751C532.254 73.9576 528.979 74.5093 526.137 76.4881C524.929 77.2566 524.007 78.3995 523.513 79.7412C523.019 81.0829 522.98 82.5493 523.403 83.9151C523.95 85.4467 524.984 86.7582 526.347 87.6507C529.291 89.8578 532.661 91.3483 535.884 93.1115C539.829 95.1656 543.594 97.546 547.139 100.228C557.618 108.523 556.556 124.329 546.503 132.358C540.018 137.527 532.425 139.595 524.35 140.33C522.322 140.508 520.306 140.54 519.269 140.59Z" fill="#114185"/>
<path d="M587.857 140.592C578.645 140.503 569.503 138.977 560.763 136.07C559.752 135.733 559.492 135.435 559.867 134.37C561.304 130.07 562.665 125.744 563.987 121.406C564.305 120.353 564.623 120.201 565.653 120.696C574.119 124.805 583.666 126.159 592.944 124.565C594.933 124.253 596.838 123.546 598.546 122.484C602.762 119.801 603.277 114.873 599.716 111.423C598.223 110.085 596.562 108.944 594.775 108.03C589.689 105.151 584.405 102.576 579.617 99.1508C568.572 91.1911 569.945 76.7876 576.698 69.5573C581.251 64.6927 586.999 62.0797 593.377 60.678C601.84 58.7753 610.297 59.2319 618.747 60.7921C622.308 61.4264 625.793 62.3904 629.277 63.3291C630.434 63.6526 630.854 63.995 630.364 65.3143C628.896 69.2909 627.56 73.312 626.263 77.3647C625.901 78.4747 625.538 78.6332 624.445 78.1575C618.268 75.2647 611.518 73.793 604.695 73.8511C601.516 73.9081 598.444 74.3775 595.672 76.0392C593.046 77.6058 591.717 79.8827 592.111 83.0158C592.359 85.0073 593.561 86.3963 595.074 87.5379C598.254 89.9416 601.91 91.5272 605.369 93.43C609.311 95.6054 613.203 97.8696 616.643 100.793C626.282 109.038 625.195 124.324 615.524 132.188C610.329 136.418 604.301 138.613 597.796 139.748C594.509 140.281 591.187 140.563 587.857 140.592Z" fill="#114185"/>
<path d="M335.949 121.919C335.625 123.821 334.805 125.528 334.201 127.322C333.05 130.741 331.823 134.128 330.684 137.553C330.601 137.895 330.41 138.202 330.141 138.43C329.871 138.658 329.536 138.795 329.184 138.821C321.553 140.09 313.84 140.895 306.089 140.312C294.523 139.443 284.604 135.238 277.787 125.407C272.98 118.481 271.282 110.61 271.709 102.321C272.421 88.4945 278.296 77.1797 289.125 68.5161C295.331 63.5564 302.63 61.1209 310.407 60.1061C320.033 58.7452 329.835 59.3297 339.23 61.8249C341.023 62.3133 342.753 62.9982 344.514 63.569C345.15 63.772 345.315 64.0447 345.08 64.736C343.58 69.1123 342.092 73.5012 340.686 77.9091C340.375 78.8795 339.936 78.6829 339.307 78.4355C334.817 76.5992 330.063 75.4881 325.222 75.1438C314.75 74.554 305.644 77.4271 299.108 86.1225C292.984 94.2724 292.037 107.807 298.593 115.989C302.668 121.063 308.048 123.752 314.432 124.494C321.318 125.293 327.976 123.967 334.55 122.084C334.97 121.963 335.396 121.881 335.822 121.779L335.949 121.919Z" fill="#114185"/>
<path d="M408.439 121.829C406.977 126.028 405.298 130.182 404.096 134.47C403.225 137.596 401.756 139.08 398.336 139.423C388.798 140.374 379.26 141.44 369.722 138.922C354.722 134.945 344.923 123.009 344.11 107.496C343.219 90.6375 349.692 77.1663 363.306 67.2025C369.029 63.0228 375.705 61.044 382.674 60.1371C392.298 58.7807 402.097 59.363 411.491 61.8495C413.234 62.3252 414.906 63.0355 416.642 63.5366C417.551 63.803 417.577 64.2152 417.278 65.008C415.822 69.251 414.378 73.4941 413.024 77.7688C412.7 78.79 412.312 78.7519 411.479 78.4348C404.815 75.8978 397.999 74.5215 390.807 75.2636C378.592 76.5701 369.296 84.6249 366.95 96.4788C365.258 105.035 366.81 112.861 373.645 118.918C379.095 123.738 385.726 125.083 392.791 124.671C397.775 124.343 402.699 123.406 407.454 121.88C407.74 121.829 407.994 121.595 408.439 121.829Z" fill="#114185"/>
<path d="M166.2 104.376L86.9917 25.3691V37.4958L154.043 104.376L154.068 104.401L95.9891 162.332L95.9191 162.263L37.8781 104.376L37.8272 104.325L66.32 75.9051H53.9525L25.4343 104.351L25.4598 104.376L95.8937 174.63L95.9191 174.605L166.264 104.439L166.2 104.376Z" fill="#FE6309"/>
<path d="M86.9702 45.8418V57.9684L133.521 104.401L96.0185 141.808L58.4838 104.375L58.4329 104.325L86.9257 75.9046H74.5583L46.04 104.35L46.0655 104.375L89.8061 148.005L95.9231 154.106L102.142 147.909L145.717 104.439L86.9702 45.8418Z" fill="#FE6309"/>
<path d="M125.184 104.376L101.956 81.1824L95.7754 75.0176L89.6966 81.0809L66.3479 104.351L89.7093 127.653L95.8263 133.754L102.032 127.558L125.247 104.44L125.184 104.376ZM95.9344 121.501L78.7662 104.376L78.7153 104.326L95.839 87.2457L113.007 104.37L95.9344 121.501Z" fill="#FE6309"/>
</svg>
